<svg width="104" height="104" viewBox="0 0 104 104" fill="none" xmlns="http://www.w3.org/2000/svg">
<g clip-path="url(#clip0_1005_12332)">
<circle cx="52" cy="52" r="51" fill="#EEEEEE" stroke="#75AE7B" stroke-width="2"/>
<mask id="path-2-inside-1_1005_12332" fill="white">
<path fill-rule="evenodd" clip-rule="evenodd" d="M13 86.3958V84.5001C13 71.5326 38.9838 65.0001 52 65.0001C65.0163 65.0001 91 71.5326 91 84.5001V86.3958C81.4717 97.1913 67.531 104 52 104C36.469 104 22.5283 97.1913 13 86.3958ZM52 21.6667C41.2262 21.6667 32.5 30.393 32.5 41.1667C32.5 51.9405 41.2262 60.6667 52 60.6667C62.7738 60.6667 71.5 51.9405 71.5 41.1667C71.5 30.393 62.7738 21.6667 52 21.6667Z"/>
</mask>
<path fill-rule="evenodd" clip-rule="evenodd" d="M13 86.3958V84.5001C13 71.5326 38.9838 65.0001 52 65.0001C65.0163 65.0001 91 71.5326 91 84.5001V86.3958C81.4717 97.1913 67.531 104 52 104C36.469 104 22.5283 97.1913 13 86.3958ZM52 21.6667C41.2262 21.6667 32.5 30.393 32.5 41.1667C32.5 51.9405 41.2262 60.6667 52 60.6667C62.7738 60.6667 71.5 51.9405 71.5 41.1667C71.5 30.393 62.7738 21.6667 52 21.6667Z" fill="white"/>
<path d="M13 86.3958H11V87.1522L11.5005 87.7193L13 86.3958ZM91 86.3958L92.4995 87.7193L93 87.1522V86.3958H91ZM15 86.3958V84.5001H11V86.3958H15ZM15 84.5001C15 81.9928 16.2401 79.6485 18.6198 77.4523C21.013 75.2434 24.4232 73.322 28.3626 71.7438C36.2447 68.5863 45.7419 67.0001 52 67.0001V63.0001C45.2419 63.0001 35.239 64.6801 26.8752 68.0307C22.6916 69.7066 18.7923 71.8497 15.9069 74.5128C13.0078 77.1885 11 80.5236 11 84.5001H15ZM52 67.0001C58.2581 67.0001 67.7553 68.5863 75.6374 71.7438C79.5768 73.322 82.987 75.2434 85.3802 77.4523C87.7599 79.6485 89 81.9928 89 84.5001H93C93 80.5236 90.9922 77.1885 88.0931 74.5128C85.2076 71.8497 81.3084 69.7066 77.1248 68.0307C68.761 64.6801 58.7581 63.0001 52 63.0001V67.0001ZM89 84.5001V86.3958H93V84.5001H89ZM89.5005 85.0723C80.3358 95.4559 66.9334 102 52 102V106C68.1286 106 82.6077 98.9266 92.4995 87.7193L89.5005 85.0723ZM52 102C37.0666 102 23.6642 95.4559 14.4995 85.0723L11.5005 87.7193C21.3923 98.9266 35.8714 106 52 106V102ZM34.5 41.1667C34.5 31.4976 42.3308 23.6667 52 23.6667V19.6667C40.1217 19.6667 30.5 29.2884 30.5 41.1667H34.5ZM52 58.6667C42.3308 58.6667 34.5 50.8359 34.5 41.1667H30.5C30.5 53.0451 40.1217 62.6667 52 62.6667V58.6667ZM69.5 41.1667C69.5 50.8359 61.6692 58.6667 52 58.6667V62.6667C63.8783 62.6667 73.5 53.0451 73.5 41.1667H69.5ZM52 23.6667C61.6692 23.6667 69.5 31.4976 69.5 41.1667H73.5C73.5 29.2884 63.8783 19.6667 52 19.6667V23.6667Z" fill="#75AE7B" mask="url(#path-2-inside-1_1005_12332)"/>
</g>
<defs>
<clipPath id="clip0_1005_12332">
<rect width="104" height="104" fill="white"/>
</clipPath>
</defs>
</svg>
