<?xml version="1.0" encoding="UTF-8" standalone="no"?>
<!-- Created with Inkscape (http://www.inkscape.org/) -->

<svg
   width="16"
   height="16"
   viewBox="0 0 4.2333332 4.2333335"
   version="1.1"
   id="svg1825"
   inkscape:version="1.1.1 (3bf5ae0d25, 2021-09-20)"
   sodipodi:docname="cud_primary_therayp_outcome.svg"
   xmlns:inkscape="http://www.inkscape.org/namespaces/inkscape"
   xmlns:sodipodi="http://sodipodi.sourceforge.net/DTD/sodipodi-0.dtd"
   xmlns="http://www.w3.org/2000/svg"
   xmlns:svg="http://www.w3.org/2000/svg"
   xmlns:rdf="http://www.w3.org/1999/02/22-rdf-syntax-ns#"
   xmlns:cc="http://creativecommons.org/ns#"
   xmlns:dc="http://purl.org/dc/elements/1.1/">
  <title
     id="title2082">Oncodash icon — treatment strategy</title>
  <sodipodi:namedview
     id="namedview1827"
     pagecolor="#ffffff"
     bordercolor="#666666"
     borderopacity="1.0"
     inkscape:pageshadow="2"
     inkscape:pageopacity="0.0"
     inkscape:pagecheckerboard="0"
     inkscape:document-units="mm"
     showgrid="false"
     units="px"
     inkscape:snap-bbox="true"
     inkscape:bbox-nodes="true"
     inkscape:snap-page="true"
     inkscape:zoom="5.3597307"
     inkscape:cx="1.4926123"
     inkscape:cy="66.048095"
     inkscape:current-layer="layer1"
     inkscape:snap-center="true" />
  <defs
     id="defs1822">
    <marker
       style="overflow:visible"
       id="StopM"
       refX="0.0"
       refY="0.0"
       orient="auto"
       inkscape:stockid="StopM"
       inkscape:isstock="true">
      <path
         transform="scale(0.4)"
         style="fill:none;fill-opacity:0.75;fill-rule:evenodd;stroke:context-stroke;stroke-width:1pt"
         d="M 0.0,5.65 L 0.0,-5.65"
         id="path11084" />
    </marker>
    <marker
       style="overflow:visible"
       id="TriangleInS"
       refX="0.0"
       refY="0.0"
       orient="auto"
       inkscape:stockid="TriangleInS"
       inkscape:isstock="true">
      <path
         transform="scale(-0.2)"
         style="fill-rule:evenodd;fill:context-stroke;stroke:context-stroke;stroke-width:1pt"
         d="M 5.77,0.0 L -2.88,5.0 L -2.88,-5.0 L 5.77,0.0 z "
         id="path11051" />
    </marker>
    <marker
       style="overflow:visible"
       id="DotS"
       refX="0.0"
       refY="0.0"
       orient="auto"
       inkscape:stockid="DotS"
       inkscape:isstock="true">
      <path
         transform="scale(0.2) translate(7.4, 1)"
         style="fill-rule:evenodd;fill:context-stroke;stroke:context-stroke;stroke-width:1pt"
         d="M -2.5,-1.0 C -2.5,1.7600000 -4.7400000,4.0 -7.5,4.0 C -10.260000,4.0 -12.5,1.7600000 -12.5,-1.0 C -12.5,-3.7600000 -10.260000,-6.0 -7.5,-6.0 C -4.7400000,-6.0 -2.5,-3.7600000 -2.5,-1.0 z "
         id="path10979" />
    </marker>
    <marker
       inkscape:stockid="DistanceEnd"
       orient="auto"
       refY="0.0"
       refX="0.0"
       id="DistanceEnd"
       style="overflow:visible"
       inkscape:isstock="true">
      <g
         id="g2301">
        <path
           id="path2316"
           d="M 0,0 L -2,0"
           style="fill:none;stroke:context-fill;stroke-width:1.15;stroke-linecap:square" />
        <path
           id="path2312"
           d="M 0,0 L -13,4 L -9,0 -13,-4 L 0,0 z "
           style="fill:context-stroke;fill-rule:evenodd;stroke:none" />
        <path
           id="path2314"
           d="M 0,-4 L 0,40"
           style="fill:none;stroke:context-stroke;stroke-width:1;stroke-linecap:square" />
      </g>
    </marker>
    <marker
       style="overflow:visible"
       id="Arrow1Send"
       refX="0.0"
       refY="0.0"
       orient="auto"
       inkscape:stockid="Arrow1Send"
       inkscape:isstock="true">
      <path
         transform="scale(0.2) rotate(180) translate(6,0)"
         style="fill-rule:evenodd;fill:context-stroke;stroke:context-stroke;stroke-width:1pt"
         d="M 0.0,0.0 L 5.0,-5.0 L -12.5,0.0 L 5.0,5.0 L 0.0,0.0 z "
         id="path10927" />
    </marker>
  </defs>
  <g
     inkscape:label="Calque 1"
     inkscape:groupmode="layer"
     id="layer1">
    <path
       fill="black"
       d="M 4.1571988,2.1163052 C 4.1571988,0.98988587 3.2436761,0.0761345 2.1165776,0.0761345 C 0.98965725,0.0761345 0.0761345,0.98988587 0.0761345,2.1163052 C 0.0761345,3.2436323 0.98965725,4.1569749 2.1165776,4.1569749 C 3.2436761,4.1569749 4.1571988,3.2436323 4.1571988,2.1163052 Z"
       id="path2152"
       style="fill:#59f;stroke:black;stroke-width:0.13229167;stroke-miterlimit:4;stroke-dasharray:none"
       sodipodi:nodetypes="sssss" />
    <path
       id="path2-8"
       style="fill:white;stroke:black;stroke-width:0.500001;stroke-miterlimit:4;stroke-dasharray:none"
       d="M 8,0.28710938 C 6.0263147,0.28718417 4.0529738,1.0407765 2.546875,2.546875 C -0.46484369,5.558611 -0.46351692,10.442735 2.546875,13.453125 C 5.5596816,16.46594 10.441406,16.464859 13.453125,13.453125 C 16.465323,10.440925 16.465953,5.5577369 13.453125,2.5449219 C 11.947929,1.0397272 9.9736853,0.28703458 8,0.28710938 Z M 8,1.7949219 C 9.5878528,1.7948617 11.175772,2.4003815 12.386719,3.6113281 C 14.810574,6.0351729 14.810067,9.9633692 12.386719,12.386719 C 9.9637562,14.809693 6.0351661,14.810563 3.6113281,12.386719 C 1.1894329,9.9648255 1.1903186,6.0362576 3.6132812,3.6132812 C 4.8249552,2.4016076 6.4121472,1.794982 8,1.7949219 Z"
       transform="scale(0.26458333)"
       inkscape:transform-center-x="0.2616248"
       inkscape:transform-center-y="3.2455079" />
  </g>
  <metadata
     id="metadata2080">
    <rdf:RDF>
      <cc:Work
         rdf:about="">
        <dc:title>Oncodash icon — treatment strategy</dc:title>
        <dc:date>2021-04</dc:date>
        <dc:creator>
          <cc:Agent>
            <dc:title>nojhan</dc:title>
          </cc:Agent>
        </dc:creator>
      </cc:Work>
    </rdf:RDF>
  </metadata>
</svg>
