<?xml version="1.0" encoding="UTF-8" standalone="no"?>
<!-- Created with Inkscape (http://www.inkscape.org/) -->

<svg
   width="16"
   height="16"
   viewBox="0 0 4.2333332 4.2333335"
   version="1.1"
   id="svg1825"
   inkscape:version="1.1.1 (3bf5ae0d25, 2021-09-20)"
   sodipodi:docname="treatment_strategy.svg"
   xmlns:inkscape="http://www.inkscape.org/namespaces/inkscape"
   xmlns:sodipodi="http://sodipodi.sourceforge.net/DTD/sodipodi-0.dtd"
   xmlns="http://www.w3.org/2000/svg"
   xmlns:svg="http://www.w3.org/2000/svg"
   xmlns:rdf="http://www.w3.org/1999/02/22-rdf-syntax-ns#"
   xmlns:cc="http://creativecommons.org/ns#"
   xmlns:dc="http://purl.org/dc/elements/1.1/">
  <title
     id="title2082">Oncodash icon — treatment strategy</title>
  <sodipodi:namedview
     id="namedview1827"
     pagecolor="#ffffff"
     bordercolor="#666666"
     borderopacity="1.0"
     inkscape:pageshadow="2"
     inkscape:pageopacity="0.0"
     inkscape:pagecheckerboard="0"
     inkscape:document-units="mm"
     showgrid="false"
     units="px"
     inkscape:snap-bbox="true"
     inkscape:bbox-nodes="true"
     inkscape:snap-page="true"
     inkscape:zoom="13.901761"
     inkscape:cx="14.710366"
     inkscape:cy="33.305133"
     inkscape:current-layer="layer1" />
  <defs
     id="defs1822" />
  <g
     inkscape:label="Calque 1"
     inkscape:groupmode="layer"
     id="layer1">
    <path
       fill="black"
       d="M 4.1571988,2.1163052 C 4.1571988,0.98988587 3.2436761,0.0761345 2.1165776,0.0761345 C 0.98965725,0.0761345 0.0761345,0.98988587 0.0761345,2.1163052 C 0.0761345,3.2436323 0.98965725,4.1569749 2.1165776,4.1569749 C 3.2436761,4.1569749 4.1571988,3.2436323 4.1571988,2.1163052 Z"
       id="path2152"
       style="fill:#59f;stroke:black;stroke-width:0.13229167;stroke-miterlimit:4;stroke-dasharray:none"
       sodipodi:nodetypes="sssss" />
    <path
       fill="black"
       d="M 3.5593637,0.67350337 C 2.7628644,-0.12299549 1.4707857,-0.12315545 0.67380841,0.67382165 C -0.12304216,1.4706768 -0.12288103,2.7627543 0.6736185,3.5592532 C 1.4707569,4.3563938 2.7625477,4.356266 3.5593983,3.5594115 C 4.3563756,2.7624337 4.3565079,1.470644 3.5593637,0.67350337 Z M 1.0856343,3.4681939 L 1.6356564,2.9181701 C 1.7242209,2.8296067 1.7242209,2.68609 1.635501,2.597369 C 1.5470976,2.5089696 1.4035838,2.508968 1.3150193,2.5975313 L 0.76493394,3.1476178 C 0.30052406,2.5404544 0.30042624,1.6926537 0.7648361,1.0854922 L 1.3148639,1.6355171 C 1.4036127,1.7242691 1.5471322,1.7242709 1.6356967,1.6357064 C 1.7242555,1.5471476 1.7242209,1.4036622 1.6354666,1.3149088 L 1.0854099,0.76485285 C 1.6926372,0.30044067 2.5405639,0.30034681 3.147699,0.76478886 L 2.5974757,1.3150083 C 2.5090779,1.4034077 2.5089225,1.5470838 2.5973202,1.6354836 C 2.6860402,1.7242053 2.829715,1.7240465 2.9181184,1.6356471 L 3.4683015,1.0854635 C 3.9324927,1.6926555 3.9326194,2.5406173 3.4683015,3.147745 L 2.9179574,2.5974001 C 2.8299107,2.5093524 2.6861092,2.5090008 2.5975447,2.597559 C 2.5089858,2.6861223 2.5093023,2.8299607 2.5973547,2.9180083 L 3.1477278,3.4683844 C 2.5406329,3.9326054 1.6927638,3.9324477 1.0856343,3.4681939 Z"
       id="path2-8"
       style="fill:white;stroke:black;stroke-width:0.13229167;stroke-miterlimit:4;stroke-dasharray:none" />
  </g>
  <metadata
     id="metadata2080">
    <rdf:RDF>
      <cc:Work
         rdf:about="">
        <dc:title>Oncodash icon — treatment strategy</dc:title>
        <dc:date>2021-04</dc:date>
        <dc:creator>
          <cc:Agent>
            <dc:title>nojhan</dc:title>
          </cc:Agent>
        </dc:creator>
      </cc:Work>
    </rdf:RDF>
  </metadata>
</svg>
