<?xml version="1.0" encoding="UTF-8" standalone="no"?>
<!-- Created with Inkscape (http://www.inkscape.org/) -->

<svg
   width="16"
   height="16"
   viewBox="0 0 4.2333332 4.2333335"
   version="1.1"
   id="svg5"
   sodipodi:docname="other_medication.svg"
   inkscape:version="1.1.1 (3bf5ae0d25, 2021-09-20)"
   xmlns:inkscape="http://www.inkscape.org/namespaces/inkscape"
   xmlns:sodipodi="http://sodipodi.sourceforge.net/DTD/sodipodi-0.dtd"
   xmlns:xlink="http://www.w3.org/1999/xlink"
   xmlns="http://www.w3.org/2000/svg"
   xmlns:svg="http://www.w3.org/2000/svg"
   xmlns:rdf="http://www.w3.org/1999/02/22-rdf-syntax-ns#"
   xmlns:cc="http://creativecommons.org/ns#"
   xmlns:dc="http://purl.org/dc/elements/1.1/">
  <title
     id="title847">Oncodash icon — other medication</title>
  <sodipodi:namedview
     id="namedview7"
     pagecolor="#ffffff"
     bordercolor="#666666"
     borderopacity="1.0"
     inkscape:pageshadow="2"
     inkscape:pageopacity="0.0"
     inkscape:pagecheckerboard="0"
     inkscape:document-units="mm"
     showgrid="false"
     units="px"
     width="16px"
     showguides="false"
     inkscape:guide-bbox="true"
     inkscape:snap-bbox="true"
     inkscape:bbox-nodes="true"
     inkscape:snap-page="true"
     inkscape:zoom="17.381469"
     inkscape:cx="3.0492245"
     inkscape:cy="4.8327332"
     inkscape:current-layer="layer1">
    <sodipodi:guide
       position="2.1166667,2.1166667"
       orientation="-1,0"
       id="guide928"
       inkscape:label=""
       inkscape:locked="false"
       inkscape:color="rgb(0,0,255)" />
    <sodipodi:guide
       position="2.1166666,2.1166668"
       orientation="0,-1"
       id="guide932" />
  </sodipodi:namedview>
  <defs
     id="defs2">
    <marker
       style="overflow:visible"
       id="marker1230"
       refX="0.0"
       refY="0.0"
       orient="auto"
       inkscape:stockid="Arrow2Send"
       inkscape:isstock="true">
      <path
         transform="scale(0.3) rotate(180) translate(-2.3,0)"
         d="M 8.7185878,4.0337352 L -2.2072895,0.016013256 L 8.7185884,-4.0017078 C 6.9730900,-1.6296469 6.9831476,1.6157441 8.7185878,4.0337352 z "
         style="stroke:context-stroke;fill-rule:evenodd;fill:context-stroke;stroke-width:0.625;stroke-linejoin:round"
         id="path1002" />
    </marker>
    <marker
       style="overflow:visible"
       id="marker1295"
       refX="0.0"
       refY="0.0"
       orient="auto"
       inkscape:stockid="Arrow1Send"
       inkscape:isstock="true">
      <path
         transform="scale(0.2) rotate(180) translate(6,0)"
         style="fill-rule:evenodd;fill:context-stroke;stroke:context-stroke;stroke-width:1pt"
         d="M 0.0,0.0 L 5.0,-5.0 L -12.5,0.0 L 5.0,5.0 L 0.0,0.0 z "
         id="path1049" />
    </marker>
    <marker
       style="overflow:visible"
       id="Arrow2Send"
       refX="0.0"
       refY="0.0"
       orient="auto"
       inkscape:stockid="Arrow2Send"
       inkscape:isstock="true">
      <path
         transform="scale(0.3) rotate(180) translate(-2.3,0)"
         d="M 8.7185878,4.0337352 L -2.2072895,0.016013256 L 8.7185884,-4.0017078 C 6.9730900,-1.6296469 6.9831476,1.6157441 8.7185878,4.0337352 z "
         style="stroke:context-stroke;fill-rule:evenodd;fill:context-stroke;stroke-width:0.625;stroke-linejoin:round"
         id="path1337" />
    </marker>
    <marker
       style="overflow:visible"
       id="Arrow1Send"
       refX="0.0"
       refY="0.0"
       orient="auto"
       inkscape:stockid="Arrow1Send"
       inkscape:isstock="true">
      <path
         transform="scale(0.2) rotate(180) translate(6,0)"
         style="fill-rule:evenodd;fill:context-stroke;stroke:context-stroke;stroke-width:1pt"
         d="M 0.0,0.0 L 5.0,-5.0 L -12.5,0.0 L 5.0,5.0 L 0.0,0.0 z "
         id="path1319" />
    </marker>
  </defs>
  <g
     inkscape:label="Calque 1"
     inkscape:groupmode="layer"
     id="layer1">
    <g
       id="g2214"
       transform="matrix(0.88249268,0,0,0.88249268,1.1452076,1.1452078)">
      <ellipse
         style="fill:#a05a2c;stroke:#502d16;stroke-width:0.241632;stroke-linejoin:round;stroke-miterlimit:4;stroke-dasharray:none;stroke-dashoffset:28.3465"
         id="path956"
         cx="2.5082266"
         cy="1.7251066"
         rx="0.87027895"
         ry="0.87027878" />
      <use
         x="0"
         y="0"
         xlink:href="#path956"
         id="use1164"
         transform="translate(-0.78311971)"
         width="100%"
         height="100%" />
      <use
         x="0"
         y="0"
         xlink:href="#path956"
         id="use1166"
         transform="translate(-0.78311971,0.78312006)"
         width="100%"
         height="100%" />
      <use
         x="0"
         y="0"
         xlink:href="#path956"
         id="use1168"
         transform="translate(-2.9032125e-8,0.78312006)"
         width="100%"
         height="100%" />
    </g>
    <g
       id="path1032">
      <path
         style="color:black;solid-color:black;fill:#a05a2c;stroke-width:0.529167;stroke-linecap:round;stroke-linejoin:round;stroke-dashoffset:28.3465;-inkscape-stroke:none"
         d="M 0.2645835,0.2645835 L 2.3606512,2.3606512"
         id="path1272" />
      <path
         style="color:black;solid-color:black;fill:#f60;stroke-linecap:round;stroke-linejoin:round;stroke-dashoffset:28.3465;-inkscape-stroke:none"
         d="M 0.26367188,0 A 0.2645835,0.2645835 0 0 0 0.078125,0.078125 A 0.2645835,0.2645835 0 0 0 0.078125,0.45117188 L 2.1738281,2.546875 A 0.2645835,0.2645835 0 0 0 2.546875,2.546875 A 0.2645835,0.2645835 0 0 0 2.546875,2.1738281 L 0.45117188,0.078125 A 0.2645835,0.2645835 0 0 0 0.26367188,0 Z"
         id="path1274" />
      <g
         id="g1262">
        <g
           id="path1264">
          <path
             style="color:black;solid-color:black;fill:#f60;fill-rule:evenodd;stroke-width:0.0992188;stroke-linejoin:round;-inkscape-stroke:none"
             d="M 2.0929437,1.1873437 L 2.8684067,2.8648117 L 1.1909389,2.0893484 C 1.6531484,2.0190148 2.0163251,1.65358 2.0929437,1.1873437 Z"
             id="path1268" />
          <path
             style="color:black;solid-color:black;fill:#f60;fill-rule:evenodd;stroke-linejoin:round;-inkscape-stroke:none"
             d="M 2.0859375,1.1386719 A 0.04961436,0.04961436 0 0 0 2.0449219,1.1796875 C 1.9716985,1.6252635 1.624358,1.9739453 1.1835937,2.0410156 A 0.04961436,0.04961436 0 0 0 1.1699219,2.1347656 L 2.8476563,2.9101563 A 0.04961436,0.04961436 0 0 0 2.9140625,2.84375 L 2.1386719,1.1660156 A 0.04961436,0.04961436 0 0 0 2.0859375,1.1386719 Z M 2.0742188,1.2636719 L 2.7695313,2.765625 L 1.2675781,2.0703125 C 1.6673905,1.9700185 1.9695274,1.6661489 2.0742188,1.2636719 Z"
             id="path1270" />
        </g>
      </g>
    </g>
  </g>
  <metadata
     id="metadata845">
    <rdf:RDF>
      <cc:Work
         rdf:about="">
        <dc:title>Oncodash icon — other medication</dc:title>
        <dc:date>2022-03-23</dc:date>
        <dc:creator>
          <cc:Agent>
            <dc:title>nojhan</dc:title>
          </cc:Agent>
        </dc:creator>
      </cc:Work>
    </rdf:RDF>
  </metadata>
</svg>
