<?xml version="1.0" encoding="UTF-8" standalone="no"?>
<!-- Created with Inkscape (http://www.inkscape.org/) -->

<svg
   width="16"
   height="16"
   viewBox="0 0 4.2333332 4.2333335"
   version="1.1"
   id="svg1862"
   inkscape:version="1.1.1 (3bf5ae0d25, 2021-09-20)"
   sodipodi:docname="bmi.svg"
   xmlns:inkscape="http://www.inkscape.org/namespaces/inkscape"
   xmlns:sodipodi="http://sodipodi.sourceforge.net/DTD/sodipodi-0.dtd"
   xmlns="http://www.w3.org/2000/svg"
   xmlns:svg="http://www.w3.org/2000/svg"
   xmlns:rdf="http://www.w3.org/1999/02/22-rdf-syntax-ns#"
   xmlns:cc="http://creativecommons.org/ns#"
   xmlns:dc="http://purl.org/dc/elements/1.1/">
  <title
     id="title859">Oncodash icon — BMI</title>
  <sodipodi:namedview
     id="namedview1864"
     pagecolor="#ffffff"
     bordercolor="#666666"
     borderopacity="1.0"
     inkscape:pageshadow="2"
     inkscape:pageopacity="0.0"
     inkscape:pagecheckerboard="0"
     inkscape:document-units="mm"
     showgrid="false"
     units="px"
     inkscape:zoom="18.503244"
     inkscape:cx="7.1879288"
     inkscape:cy="6.1070372"
     inkscape:current-layer="layer1" />
  <defs
     id="defs1859" />
  <g
     inkscape:label="Calque 1"
     inkscape:groupmode="layer"
     id="layer1">
    <g
       id="g2203"
       transform="matrix(0.32700155,0,0,0.32597063,-50.626918,-9.121706)"
       style="stroke-width:1.0099">
      <g
         id="g1970"
         transform="matrix(0.02179814,0,0,0.02172894,153.47126,28.35447)"
         style="stroke-width:16.3698">
        <path
           style="opacity:0.950586;fill:#80b3ff;stroke:none;stroke-width:6.13875"
           d="M 72.352987,61.194167 L 234.76933,60.859566 C 132.30216,315.1733 125.76049,351.43717 74.220747,499.9783 Z"
           id="path1929"
           sodipodi:nodetypes="cccc" />
        <path
           style="color:black;display:inline;overflow:visible;visibility:visible;opacity:1;fill:#c0d9ff;fill-opacity:1;fill-rule:evenodd;stroke:none;stroke-width:16.4763;stroke-miterlimit:4;stroke-dasharray:none;stroke-opacity:1;marker:none;enable-background:accumulate"
           d="M 76.463492,494.93919 C 77.039699,493.18606 80.415756,482.63916 83.965839,471.50163 C 125.30657,341.80508 181.26084,190.54389 232.46527,70.063114 L 236.05123,61.625593 H 249.81325 H 263.57527 V 64.6256 C 263.57527,66.275605 263.91277,67.625608 264.32527,67.625608 C 264.73777,67.625608 265.07527,66.275605 265.07527,64.6256 V 61.625593 H 311.95039 C 337.73171,61.625593 358.82551,61.812124 358.82551,62.040106 C 358.82551,62.268089 356.84363,65.896223 354.42133,70.102627 C 347.18216,82.673722 329.68662,114.07891 319.65991,132.50077 C 253.82037,253.46636 201.1237,361.47572 150.02384,480.19413 L 142.73129,497.13664 L 119.71556,497.63035 C 107.05692,497.90189 91.91095,498.12466 86.057847,498.12538 L 75.415843,498.12738 Z"
           id="path5135"
           inkscape:connector-curvature="0" />
        <path
           style="color:black;display:inline;overflow:visible;visibility:visible;opacity:1;fill:#fff4ca;fill-opacity:1;fill-rule:evenodd;stroke:none;stroke-width:16.4763;stroke-miterlimit:4;stroke-dasharray:none;stroke-opacity:1;marker:none;enable-background:accumulate"
           d="M 144.32496,497.70277 C 144.32496,496.46556 171.96918,433.27776 185.97487,402.50145 C 235.47198,293.73579 300.7035,166.4549 358.36766,66.125604 L 360.30745,62.750596 L 360.31645,65.188102 C 360.32145,66.52873 360.66302,67.625608 361.07552,67.625608 C 361.48802,67.625608 361.82552,66.275605 361.82552,64.6256 V 61.625593 H 408.32564 C 433.9007,61.625593 454.82576,61.786554 454.82576,61.983284 C 454.82576,62.180014 450.71362,68.339405 445.68768,75.670819 C 433.72116,93.12657 404.83938,136.60815 394.48882,152.75082 C 335.07122,245.41819 290.1851,320.47359 247.81919,398.00144 C 234.83679,421.75868 208.26914,471.9134 198.85544,490.43578 L 194.95009,498.11991 L 182.38756,498.12391 L 169.82503,498.12791 V 495.1279 C 169.82503,493.4779 169.48753,492.1279 169.07503,492.1279 C 168.66253,492.1279 168.32503,493.4779 168.32503,495.1279 V 498.12791 H 156.325 C 149.72498,498.12791 144.32496,497.93714 144.32496,497.70399 Z"
           id="path5139"
           inkscape:connector-curvature="0" />
        <path
           style="color:black;display:inline;overflow:visible;visibility:visible;opacity:1;fill:#ffe060;fill-opacity:1;fill-rule:evenodd;stroke:none;stroke-width:16.4763;stroke-miterlimit:4;stroke-dasharray:none;stroke-opacity:1;marker:none;enable-background:accumulate"
           d="M 206.79176,478.43915 C 244.79869,404.31656 299.57023,307.25747 342.54424,237.87604 C 381.22822,175.42085 410.06647,130.75458 443.49788,81.513539 C 452.31906,68.520834 455.25977,64.688742 455.44042,65.950999 C 455.84724,68.793532 457.07576,67.797844 457.07576,64.6256 V 61.625593 H 503.51454 C 529.05587,61.625593 550.48717,61.830452 551.13966,62.080835 C 551.89891,62.372186 552.326,63.45222 552.326,65.080843 C 552.326,66.480464 552.6635,67.625608 553.07601,67.625608 C 553.48851,67.625608 553.82601,66.275605 553.82601,64.6256 V 61.625593 H 600.30259 C 643.3433,61.625593 646.74376,61.717853 646.30025,62.873629 C 646.00522,63.642452 646.12151,63.936152 646.60307,63.638524 C 648.0702,62.731789 648.30972,68.65708 648.31799,106.0632 L 648.32599,143.3758 H 645.32598 C 641.52993,143.3758 641.37797,144.70679 645.13848,145.01802 L 647.95099,145.2508 L 648.14484,186.68841 L 648.33869,228.12601 H 645.33234 C 643.67884,228.12601 642.32598,228.46351 642.32598,228.87601 C 642.32598,229.28851 643.67598,229.62601 645.32598,229.62601 H 648.32599 V 271.25112 V 312.87623 H 645.32598 C 643.67598,312.87623 642.32598,313.21373 642.32598,313.62623 C 642.32598,314.03873 643.67598,314.37623 645.32598,314.37623 H 648.32599 V 355.25133 V 396.12644 H 645.32598 C 643.67598,396.12644 642.32598,396.46394 642.32598,396.87644 C 642.32598,397.28894 643.67598,397.62644 645.32598,397.62644 H 648.32599 V 439.25155 V 480.87665 H 645.32598 C 643.67598,480.87665 642.32598,481.21416 642.32598,481.62666 C 642.32598,482.03916 643.67598,482.37666 645.32598,482.37666 H 648.32599 L 648.31899,486.31417 C 648.31499,488.4798 648.09965,492.02356 647.83952,494.18919 L 647.36657,498.1267 H 600.59592 H 553.82527 V 495.12669 C 553.82527,493.47669 553.48777,492.12668 553.07527,492.12668 C 552.66276,492.12668 552.32526,493.47669 552.32526,495.12669 V 498.1267 H 504.70064 H 457.07552 V 495.12669 C 457.07552,493.47669 456.73802,492.12668 456.32552,492.12668 C 455.91302,492.12668 455.57552,493.47669 455.57552,495.12669 V 498.1267 H 408.7004 H 361.82528 V 495.12669 C 361.82528,493.47669 361.48778,492.12668 361.07528,492.12668 C 360.66278,492.12668 360.32527,493.47669 360.32527,495.12669 V 498.1267 H 331.05791 H 301.79054 L 303.0191,496.25169 C 303.6948,495.22044 303.92836,494.37669 303.53812,494.37669 C 303.14788,494.37669 302.37704,495.22044 301.82513,496.25169 L 300.82165,498.1267 H 282.94834 H 265.07526 V 495.12669 C 265.07526,493.47669 264.73776,492.12668 264.32526,492.12668 C 263.91276,492.12668 263.57526,493.47669 263.57526,495.12669 V 498.1267 H 256.42386 C 249.40697,498.1267 249.2882,498.0973 250.10961,496.56246 C 251.3355,494.27186 250.48887,494.00869 249.03453,496.22829 L 247.79065,498.1267 H 222.24373 H 196.69681 Z M 307.0587,489.60609 C 307.0497,489.13616 306.38203,489.59549 305.57538,490.62668 C 303.65815,493.07772 303.68081,494.5352 305.60038,492.2311 C 306.41166,491.25727 307.06792,490.07601 307.05875,489.60609 Z M 253.80139,489.54579 C 253.78829,489.10901 253.28202,489.40677 252.67639,490.20749 C 252.07076,491.00821 251.58598,492.02071 251.5991,492.45749 C 251.6122,492.89428 252.11846,492.59651 252.7241,491.7958 C 253.32973,490.99508 253.81451,489.98258 253.80139,489.54579 Z M 256.77755,484.62666 C 256.77755,483.77689 256.50816,483.85783 255.6764,484.95751 C 255.07076,485.75823 254.57525,486.91961 254.57525,487.53837 C 254.57525,488.38814 254.84465,488.3072 255.6764,487.20752 C 256.28203,486.4068 256.77755,485.24542 256.77755,484.62666 Z M 310.46139,484.76267 C 309.98316,484.28443 307.87261,486.92669 307.87418,488.00167 C 307.87479,488.41417 308.5475,487.94457 309.36909,486.95793 C 310.19068,485.97136 310.68222,484.98349 310.46139,484.76267 Z M 313.80872,480.19791 C 313.79662,479.32707 313.39307,479.5117 312.32539,480.87665 C 310.41101,483.32405 310.41101,484.48416 312.32539,482.75166 C 313.15039,482.00504 313.81789,480.85586 313.80872,480.19791 Z M 259.45026,480.87665 C 260.72046,478.42036 260.20967,477.84409 258.61929,479.93915 C 257.64099,481.2279 257.23098,483.12666 257.93099,483.12666 C 258.12665,483.12666 258.81033,482.11416 259.45026,480.87665 Z M 317.55045,474.60605 C 317.53675,474.13612 316.86173,474.54835 316.05045,475.52223 C 315.23917,476.49606 314.58663,477.67731 314.60035,478.14723 C 314.61405,478.61716 315.28908,478.20493 316.10035,477.23106 C 316.91163,476.25723 317.56418,475.07597 317.55045,474.60605 Z M 263.53364,473.75164 C 263.52864,473.33914 262.8616,473.79844 262.05032,474.77222 C 261.23903,475.74606 260.58277,476.92731 260.59194,477.39723 C 260.60094,477.86716 261.26861,477.40783 262.07526,476.37664 C 262.88193,475.34539 263.5382,474.16414 263.53364,473.75164 Z M 320.13144,471.50163 C 320.80715,470.47038 321.05353,469.62663 320.67896,469.62663 C 320.30439,469.62663 319.44508,470.47038 318.76938,471.50163 C 318.09367,472.53288 317.84729,473.37664 318.22186,473.37664 C 318.59643,473.37664 319.45574,472.53288 320.13144,471.50163 Z M 266.55033,468.60604 C 266.53663,468.13611 265.8616,468.54834 265.05033,469.52221 C 264.23904,470.49604 263.5865,471.6773 263.60022,472.14722 C 263.61392,472.61715 264.28895,472.20492 265.10022,471.23104 C 265.91151,470.25721 266.56405,469.07596 266.55033,468.60604 Z M 324.28379,464.75161 C 324.27879,464.33911 323.61174,464.79841 322.80047,465.7722 C 321.98919,466.74603 321.33292,467.92729 321.3421,468.39721 C 321.3511,468.86714 322.01876,468.40791 322.82542,467.37662 C 323.63208,466.34537 324.28834,465.16411 324.28379,464.75161 Z M 268.73298,465.40469 C 270.01913,462.58192 269.16951,462.28544 267.73632,465.05692 C 267.07656,466.33275 266.82875,467.37662 267.18564,467.37662 C 267.54252,467.37662 268.23882,466.48926 268.73298,465.40469 Z M 326.88146,461.75161 C 327.55717,460.72035 327.80355,459.8766 327.42898,459.8766 C 327.05441,459.8766 326.1951,460.72035 325.5194,461.75161 C 324.84369,462.78286 324.59731,463.62661 324.97188,463.62661 C 325.34645,463.62661 326.20576,462.78286 326.88146,461.75161 Z M 271.53125,460.8141 C 272.71382,459.25627 272.88083,458.09924 271.82932,458.74911 C 270.85324,459.35236 269.37424,462.12661 270.02872,462.12661 C 270.30714,462.12661 270.98327,461.53598 271.53125,460.8141 Z M 331.03381,455.00159 C 331.02881,454.58909 330.36176,455.04839 329.55048,456.02218 C 328.73921,456.99601 328.08294,458.17726 328.09211,458.64718 C 328.10111,459.11711 328.76878,458.65778 329.57544,457.6266 C 330.38209,456.59534 331.03836,455.41409 331.03381,455.00159 Z M 274.85968,455.31235 C 276.08557,453.02176 275.23893,452.75859 273.7846,454.97818 C 273.10046,456.02231 272.87412,456.87659 273.28161,456.87659 C 273.68911,456.87659 274.39924,456.17269 274.85968,455.31235 Z M 334.78382,449.75158 C 334.77882,449.33907 334.11177,449.79838 333.30049,450.77216 C 332.48922,451.746 331.83295,452.92725 331.84212,453.39717 C 331.85112,453.8671 332.51879,453.40777 333.32545,452.37658 C 334.1321,451.34533 334.78837,450.16408 334.78382,449.75158 Z M 278.91055,447.96181 C 278.38912,447.44038 276.37595,450.32633 276.35409,451.62658 C 276.34369,452.24533 276.99356,451.7528 277.79824,450.53206 C 278.60291,449.31133 279.10345,448.15472 278.91055,447.96181 Z M 337.38149,446.75157 C 338.05719,445.72031 338.30358,444.87656 337.929,444.87656 C 337.55444,444.87656 336.69512,445.72031 336.01942,446.75157 C 335.34372,447.78282 335.09733,448.62657 335.47191,448.62657 C 335.84647,448.62657 336.70579,447.78282 337.38149,446.75157 Z M 282.28368,443.00156 C 282.27868,442.58906 281.61164,443.04826 280.80036,444.02215 C 279.98908,444.99598 279.33282,446.17723 279.34199,446.64715 C 279.35099,447.11708 280.01866,446.65775 280.82531,445.62656 C 281.63197,444.59531 282.28824,443.41406 282.28368,443.00156 Z M 341.55051,440.10597 C 341.53681,439.63604 340.86179,440.04827 340.05051,441.02214 C 339.23923,441.99597 338.58669,443.17722 338.60041,443.64714 C 338.61411,444.11707 339.28914,443.70484 340.10042,442.73097 C 340.91169,441.75714 341.56424,440.57589 341.55051,440.10597 Z M 285.30864,437.85596 C 285.29964,437.38603 284.63198,437.84536 283.82532,438.87655 C 281.90809,441.32758 281.93076,442.78507 283.85032,440.48097 C 284.6616,439.50713 285.31787,438.32588 285.3087,437.85596 Z M 344.1315,437.00154 C 344.80721,435.97029 345.05359,435.12654 344.67902,435.12654 C 344.30445,435.12654 343.44514,435.97029 342.76944,437.00154 C 342.09373,438.0328 341.84735,438.87655 342.22192,438.87655 C 342.59649,438.87655 343.4558,438.0328 344.1315,437.00154 Z M 287.57472,434.75267 C 289.01767,432.0565 288.12323,431.74651 286.556,434.39961 C 285.83248,435.62442 285.54007,436.62654 285.90619,436.62654 C 286.27231,436.62654 287.02315,435.7833 287.57472,434.75267 Z M 348.3088,430.35594 C 348.2998,429.88601 347.63214,430.34534 346.82548,431.37653 C 344.90825,433.82756 344.93092,435.28505 346.85048,432.98095 C 347.66175,432.00712 348.31802,430.82586 348.30885,430.35594 Z M 291.58773,427.6389 C 291.10946,427.16064 289.06925,429.87344 289.09201,430.95737 C 289.10101,431.39416 289.7531,430.91277 290.54072,429.88773 C 291.32834,428.86264 291.79949,427.85067 291.58773,427.6389 Z M 351.7115,425.51252 C 351.23326,425.03428 349.12271,427.67654 349.12429,428.75152 C 349.1249,429.16402 349.7976,428.69432 350.61919,427.70777 C 351.44079,426.72121 351.93233,425.73334 351.7115,425.51252 Z M 294.18888,424.25151 C 295.17536,422.08642 294.57543,421.77089 293.11938,423.68901 C 291.96445,425.21043 291.8087,426.12652 292.70495,426.12652 C 293.05124,426.12652 293.71901,425.28276 294.18888,424.25151 Z M 355.4615,420.26251 C 354.98327,419.78427 352.87272,422.42653 352.8743,423.50151 C 352.87491,423.91401 353.54761,423.44431 354.3692,422.45776 C 355.1908,421.47119 355.68234,420.48333 355.4615,420.26251 Z M 297.29897,419.4258 C 298.27743,417.59752 298.28834,416.90634 297.32947,417.499 C 296.12497,418.24342 294.91129,420.8765 295.77265,420.8765 C 296.18515,420.8765 296.87204,420.22369 297.29905,419.4258 Z M 357.78147,418.06399 C 358.96404,416.50616 359.13105,415.34913 358.07954,415.999 C 357.10346,416.60225 355.62446,419.3765 356.27893,419.3765 C 356.55735,419.3765 357.23349,418.78587 357.78147,418.06399 Z M 301.41061,411.96172 C 300.88918,411.44029 298.87601,414.32624 298.85415,415.62649 C 298.84375,416.24524 299.49362,415.75271 300.29829,414.53197 C 301.10297,413.31124 301.60351,412.15462 301.41061,411.96172 Z M 362.55057,410.85589 C 362.53687,410.38596 361.86184,410.79819 361.05056,411.77206 C 360.23929,412.7459 359.58674,413.92715 359.60047,414.39707 C 359.61417,414.867 360.28919,414.45477 361.10047,413.4809 C 361.91175,412.50707 362.56429,411.32581 362.55057,410.85589 Z M 304.78374,407.00147 C 304.77874,406.58897 304.11169,407.04817 303.30042,408.02205 C 302.48914,408.99589 301.83287,410.17714 301.84205,410.64706 C 301.85105,411.11699 302.51871,410.65766 303.32537,409.62647 C 304.13203,408.59522 304.78829,407.41397 304.78374,407.00147 Z M 366.2839,405.50146 C 366.2789,405.08896 365.61185,405.54816 364.80057,406.52205 C 363.9893,407.49588 363.33303,408.67714 363.3422,409.14706 C 363.3512,409.61699 364.01887,409.15766 364.82553,408.12647 C 365.63218,407.09522 366.28845,405.91396 366.2839,405.50146 Z M 307.07477,404.00259 C 307.62635,402.97196 307.87702,401.92809 307.63181,401.68289 C 307.38661,401.43768 306.64618,402.28092 305.98642,403.55676 C 305.32666,404.8326 305.07599,405.87646 305.42938,405.87646 C 305.78277,405.87646 306.5232,405.03322 307.07477,404.00259 Z M 369.16533,402.27285 C 370.70845,399.94879 369.25103,400.26151 367.52828,402.62411 C 366.64222,403.83927 366.47665,404.45108 367.08909,404.24694 C 367.62978,404.06671 368.56408,403.17837 369.16533,402.27285 Z M 310.38142,398.75145 C 311.05712,397.72019 311.30351,396.87644 310.92893,396.87644 C 310.55437,396.87644 309.69505,397.72019 309.01935,398.75145 C 308.34365,399.7827 308.09726,400.62645 308.47184,400.62645 C 308.8464,400.62645 309.70572,399.7827 310.38142,398.75145 Z M 373.07555,396.64396 C 373.07555,396.23145 372.40055,396.50482 371.57554,397.25144 C 370.75054,397.99806 370.07554,398.94643 370.07554,399.35893 C 370.07554,399.77143 370.75054,399.49806 371.57554,398.75145 C 372.40055,398.00483 373.07555,397.05646 373.07555,396.64396 Z M 313.4504,393.87643 C 314.09033,392.63893 314.32193,391.62643 313.96505,391.62643 C 313.40558,391.62643 311.57539,394.81271 311.57539,395.78673 C 311.57539,396.73634 312.41253,395.88343 313.4504,393.87643 Z M 375.78152,393.31393 C 376.96408,391.7561 377.13109,390.59907 376.07959,391.24894 C 375.10351,391.85219 373.6245,394.62643 374.27898,394.62643 C 374.55739,394.62643 375.23354,394.03581 375.78152,393.31393 Z M 317.55873,386.85583 C 317.54973,386.3859 316.88206,386.84523 316.0754,387.87642 C 314.15817,390.32745 314.18084,391.78494 316.1004,389.48084 C 316.91167,388.507 317.56794,387.32575 317.55877,386.85583 Z M 380.55889,386.10583 C 380.54989,385.6359 379.88222,386.09523 379.07556,387.12642 C 377.15833,389.57745 377.181,391.03494 379.10056,388.73083 C 379.91183,387.757 380.5681,386.57575 380.55893,386.10583 Z M 319.85979,384.06217 C 321.08568,381.77157 320.23905,381.50841 318.78472,383.728 C 318.10057,384.77213 317.87424,385.62641 318.28173,385.62641 C 318.68923,385.62641 319.39935,384.92251 319.85979,384.06217 Z M 383.96158,381.26241 C 383.48335,380.78417 381.3728,383.42643 381.37437,384.50141 C 381.37498,384.91391 382.04769,384.44421 382.86927,383.45766 C 383.69087,382.47109 384.18241,381.48323 383.96158,381.26241 Z M 323.96142,376.76239 C 323.48319,376.28416 321.37264,378.92642 321.37422,380.0014 C 321.37483,380.4139 322.04753,379.9442 322.86912,378.95765 C 323.69072,377.97108 324.18226,376.98322 323.96142,376.76239 Z M 386.87284,378.37874 C 387.7589,377.16358 387.92447,376.55176 387.31202,376.75591 C 386.1289,377.15028 383.86582,380.38637 384.7966,380.35283 C 385.15629,380.33983 386.09059,379.45153 386.87284,378.37874 Z M 391.05891,371.85579 C 391.04991,371.38586 390.38225,371.84519 389.57559,372.87638 C 387.65836,375.32742 387.68102,376.7849 389.60059,374.4808 C 390.41187,373.50697 391.06814,372.32571 391.05897,371.85579 Z M 326.60981,373.56214 C 327.8357,371.27155 326.98906,371.00838 325.53473,373.22797 C 324.85059,374.2721 324.62425,375.12639 325.03174,375.12639 C 325.43924,375.12639 326.14937,374.42248 326.60981,373.56214 Z M 330.66068,366.2116 C 330.13925,365.69018 328.12608,368.57612 328.10423,369.87637 C 328.09383,370.49512 328.74369,370.00259 329.54837,368.78186 C 330.35305,367.56112 330.85358,366.40451 330.66068,366.2116 Z M 394.58868,367.13945 C 394.29796,366.84873 393.56807,367.26123 392.9667,368.05612 C 391.27917,370.2867 391.62838,371.15692 393.47143,369.31387 C 394.37664,368.40866 394.87941,367.43017 394.58868,367.13945 Z M 398.57561,361.95431 C 398.57561,361.64607 397.90061,362.00471 397.07561,362.75135 C 396.25061,363.49797 395.5756,364.6083 395.5756,365.21875 C 395.5756,365.93294 396.1104,365.64877 397.07561,364.42171 C 397.90061,363.37289 398.57561,362.26256 398.57561,361.95431 Z M 334.05877,361.35577 C 334.04977,360.88584 333.3821,361.34517 332.57544,362.37635 C 330.65821,364.82739 330.68088,366.28488 332.60044,363.98077 C 333.41172,363.00694 334.06798,361.82569 334.05881,361.35577 Z M 401.13165,359.00134 C 401.80736,357.97009 402.05374,357.12634 401.67917,357.12634 C 401.3046,357.12634 400.44528,357.97009 399.76959,359.00134 C 399.09388,360.0326 398.8475,360.87635 399.22207,360.87635 C 399.59663,360.87635 400.45595,360.0326 401.13165,359.00134 Z M 336.63148,358.25134 C 337.30719,357.22009 337.55357,356.37634 337.179,356.37634 C 336.80443,356.37634 335.94512,357.22009 335.26942,358.25134 C 334.59371,359.28259 334.34733,360.12635 334.7219,360.12635 C 335.09647,360.12635 335.95579,359.28259 336.63148,358.25134 Z M 405.46836,353.06301 C 406.19191,351.66946 406.06638,351.69708 404.30242,353.31956 C 403.21518,354.3196 402.32562,355.4578 402.32562,355.84891 C 402.32562,356.85551 404.50006,354.92797 405.46836,353.06301 Z M 340.78383,351.50133 C 340.77883,351.08882 340.11179,351.54803 339.30051,352.52191 C 338.48923,353.49575 337.83296,354.677 337.84214,355.14692 C 337.85114,355.61685 338.5188,355.15752 339.32546,354.12633 C 340.13212,353.09508 340.78838,351.91383 340.78383,351.50133 Z M 408.63167,349.25132 C 409.30737,348.22007 409.55376,347.37631 409.17918,347.37631 C 408.80462,347.37631 407.9453,348.22007 407.2696,349.25132 C 406.5939,350.28257 406.34751,351.12632 406.72209,351.12632 C 407.09665,351.12632 407.95597,350.28257 408.63167,349.25132 Z M 343.07486,348.50245 C 344.51781,345.80628 343.62337,345.49629 342.05614,348.14939 C 341.33262,349.3742 341.04021,350.37632 341.40633,350.37632 C 341.77245,350.37632 342.52329,349.53308 343.07486,348.50245 Z M 412.82565,343.39382 C 412.82565,342.98132 412.15065,343.25469 411.32564,344.00131 C 410.50064,344.74793 409.82564,345.6963 409.82564,346.1088 C 409.82564,346.5213 410.50064,346.24793 411.32564,345.50131 C 412.15065,344.75469 412.82565,343.80632 412.82565,343.39382 Z M 347.21148,341.5123 C 346.73325,341.03407 344.6227,343.67633 344.62428,344.75131 C 344.62488,345.16381 345.29759,344.69411 346.11918,343.70756 C 346.94078,342.72099 347.43231,341.73313 347.21148,341.5123 Z M 416.53403,338.00129 C 416.52903,337.58879 415.86198,338.04799 415.0507,339.02188 C 414.23942,339.99571 413.58316,341.17696 413.59233,341.64688 C 413.60133,342.11681 414.269,341.65748 415.07565,340.6263 C 415.88231,339.59504 416.53858,338.41379 416.53403,338.00129 Z M 349.85987,338.31205 C 351.08576,336.02146 350.23912,335.75829 348.78479,337.97788 C 348.10065,339.02201 347.87431,339.8763 348.2818,339.8763 C 348.6893,339.8763 349.39943,339.17239 349.85987,338.31205 Z M 420.32567,333.64379 C 420.32567,333.23129 419.65067,333.50466 418.82566,334.25128 C 418.00066,334.9979 417.32566,335.94627 417.32566,336.35877 C 417.32566,336.77127 418.00066,336.4979 418.82566,335.75128 C 419.65067,335.00467 420.32567,334.0563 420.32567,333.64379 Z M 354.28387,331.25127 C 354.27887,330.83877 353.61182,331.29797 352.80054,332.27186 C 351.98927,333.24569 351.333,334.42695 351.34217,334.89687 C 351.35117,335.3668 352.01884,334.90747 352.8255,333.87628 C 353.63215,332.84503 354.28842,331.66377 354.28387,331.25127 Z M 424.03404,328.25127 C 424.02904,327.83876 423.362,328.29797 422.55072,329.27185 C 421.73944,330.24569 421.08318,331.42694 421.09235,331.89686 C 421.10135,332.36679 421.76902,331.90746 422.57567,330.87627 C 423.38233,329.84502 424.0386,328.66377 424.03404,328.25127 Z M 356.5749,328.25327 C 358.01785,325.55709 357.1234,325.24711 355.55618,327.90021 C 354.83266,329.12502 354.54025,330.12714 354.90636,330.12714 C 355.27248,330.12714 356.02332,329.2839 356.5749,328.25327 Z M 427.82569,323.89427 C 427.82569,323.48177 427.15068,323.75514 426.32568,324.50176 C 425.50068,325.24838 424.82568,326.19675 424.82568,326.60925 C 424.82568,327.02175 425.50068,326.74838 426.32568,326.00176 C 427.15068,325.25514 427.82569,324.30677 427.82569,323.89427 Z M 360.71152,321.26275 C 360.23329,320.78451 358.12274,323.42678 358.12431,324.50176 C 358.12492,324.91426 358.79763,324.44456 359.61922,323.45801 C 360.44081,322.47144 360.93235,321.48358 360.71152,321.26275 Z M 430.38172,320.75175 C 431.05743,319.72049 431.30381,318.87674 430.92924,318.87674 C 430.55467,318.87674 429.69536,319.72049 429.01966,320.75175 C 428.34395,321.783 428.09757,322.62675 428.47214,322.62675 C 428.84671,322.62675 429.70602,321.783 430.38172,320.75175 Z M 364.05884,316.35615 C 364.04984,315.88622 363.38218,316.34555 362.57552,317.37674 C 360.65829,319.82777 360.68096,321.28526 362.60052,318.98116 C 363.41179,318.00732 364.06806,316.82607 364.05889,316.35615 Z M 435.32571,314.14424 C 435.32571,313.73174 434.6507,314.00511 433.8257,314.75173 C 433.0007,315.49835 432.3257,316.44672 432.3257,316.85922 C 432.3257,317.27172 433.0007,316.99835 433.8257,316.25174 C 434.6507,315.50512 435.32571,314.55675 435.32571,314.14424 Z M 367.80058,311.10614 C 367.78688,310.63621 367.11185,311.04844 366.30058,312.02231 C 365.4893,312.99614 364.83675,314.17739 364.85048,314.64732 C 364.86418,315.11724 365.53921,314.70502 366.35048,313.73114 C 367.16176,312.75731 367.81431,311.57606 367.80058,311.10614 Z M 437.88174,311.00172 C 438.55745,309.97047 438.80383,309.12672 438.42926,309.12672 C 438.05469,309.12672 437.19538,309.97047 436.51968,311.00172 C 435.84397,312.03297 435.59759,312.87673 435.97216,312.87673 C 436.34673,312.87673 437.20604,312.03297 437.88174,311.00172 Z M 370.10992,308.31248 C 371.33581,306.02188 370.48917,305.75871 369.03484,307.97831 C 368.3507,309.02244 368.12436,309.87672 368.53186,309.87672 C 368.93935,309.87672 369.64948,309.17281 370.10992,308.31248 Z M 441.62298,306.37906 C 442.50904,305.16389 442.67461,304.55208 442.06216,304.75622 C 440.87904,305.1506 438.61596,308.38669 439.54674,308.35315 C 439.90642,308.34015 440.84073,307.45184 441.62298,306.37906 Z M 374.53392,301.2517 C 374.52892,300.8392 373.86187,301.2984 373.05059,302.27228 C 372.23932,303.24612 371.58305,304.42737 371.59222,304.89729 C 371.60122,305.36722 372.26889,304.90789 373.07555,303.8767 C 373.8822,302.84545 374.53847,301.6642 374.53392,301.2517 Z M 445.66552,301.02309 C 447.20865,298.69903 445.75122,299.01175 444.02847,301.37435 C 443.14241,302.58951 442.97684,303.20133 443.58929,302.99718 C 444.12998,302.81695 445.06428,301.92861 445.66552,301.02309 Z M 376.53152,298.81419 C 377.71408,297.25635 377.88109,296.09933 376.82959,296.7492 C 375.85351,297.35244 374.37451,300.12669 375.02898,300.12669 C 375.3074,300.12669 375.98354,299.53607 376.53152,298.81419 Z M 449.13177,296.75169 C 449.80748,295.72043 450.05386,294.87668 449.67929,294.87668 C 449.30472,294.87668 448.44541,295.72043 447.76971,296.75169 C 447.094,297.78294 446.84762,298.62669 447.22219,298.62669 C 447.59676,298.62669 448.45607,297.78294 449.13177,296.75169 Z M 381.28394,291.50167 C 381.27894,291.08917 380.61189,291.54837 379.80061,292.52226 C 378.98933,293.49609 378.33307,294.67735 378.34224,295.14727 C 378.35124,295.6172 379.01891,295.15787 379.82556,294.12668 C 380.63222,293.09543 381.28849,291.91417 381.28394,291.50167 Z M 453.7024,290.50331 C 453.2045,290.00542 450.32574,292.66566 450.32574,293.62365 C 450.32574,294.04413 451.16817,293.59675 452.19779,292.62945 C 453.22742,291.66217 453.90449,290.7054 453.7024,290.50331 Z M 383.6179,288.68917 C 385.3298,286.6371 385.51843,285.32545 383.90962,286.66064 C 382.56432,287.77716 381.04759,290.37667 381.74146,290.37667 C 381.99923,290.37667 382.84363,289.61729 383.6179,288.68917 Z M 457.50798,285.30887 C 457.02582,284.82671 454.12615,288.20562 454.12441,289.25167 C 454.12372,289.66417 454.97355,289.0346 456.01292,287.85263 C 457.05229,286.67065 457.72507,285.52596 457.50798,285.30887 Z M 387.03155,283.81415 C 388.21411,282.25632 388.38112,281.09929 387.32962,281.74916 C 386.35354,282.35241 384.87453,285.12666 385.52901,285.12666 C 385.80742,285.12666 386.48356,284.53603 387.03155,283.81415 Z M 460.3818,282.50165 C 461.05751,281.4704 461.30389,280.62664 460.92932,280.62664 C 460.55475,280.62664 459.69544,281.4704 459.01974,282.50165 C 458.34403,283.5329 458.09765,284.37665 458.47222,284.37665 C 458.84679,284.37665 459.7061,283.5329 460.3818,282.50165 Z M 391.80891,276.57289 C 391.81791,276.19959 391.15059,276.50499 390.32559,277.25164 C 389.50059,277.99826 388.83309,279.14744 388.84227,279.80538 C 388.85437,280.67623 389.25791,280.49159 390.32559,279.12664 C 391.13225,278.09539 391.79974,276.94621 391.80891,276.57289 Z M 464.12303,277.87898 C 465.00909,276.66382 465.17466,276.05201 464.56222,276.25615 C 463.3791,276.65052 461.11601,279.88662 462.0468,279.85308 C 462.40648,279.84008 463.34079,278.95177 464.12303,277.87898 Z M 393.78156,274.06413 C 394.96413,272.50629 395.13114,271.34926 394.07964,271.99913 C 393.10355,272.60238 391.62455,275.37663 392.27902,275.37663 C 392.55744,275.37663 393.23358,274.786 393.78156,274.06413 Z M 469.07579,271.36515 C 469.07579,270.95265 468.23204,271.40785 467.20079,272.37662 C 466.16953,273.34544 465.32578,274.4756 465.32578,274.8881 C 465.32578,275.3006 466.16953,274.8454 467.20079,273.87663 C 468.23204,272.90781 469.07579,271.77765 469.07579,271.36515 Z M 397.53157,268.81411 C 399.05293,266.80998 398.76277,265.97475 397.07561,267.50161 C 395.60641,268.83122 395.10296,270.12662 396.05543,270.12662 C 396.31932,270.12662 396.98359,269.53599 397.53157,268.81411 Z M 471.63183,268.25161 C 472.30753,267.22036 472.55392,266.37661 472.17934,266.37661 C 471.80478,266.37661 470.94546,267.22036 470.26976,268.25161 C 469.59406,269.28287 469.34767,270.12662 469.72225,270.12662 C 470.09681,270.12662 470.95613,269.28287 471.63183,268.25161 Z M 401.17863,263.1891 C 402.44047,261.03283 402.4544,260.87428 401.29939,261.81492 C 399.71602,263.10439 398.2855,265.62661 399.13752,265.62661 C 399.4756,265.62661 400.3941,264.52973 401.17863,263.1891 Z M 475.37306,263.62895 C 476.25912,262.41379 476.42469,261.80197 475.81225,262.00611 C 474.62913,262.40049 472.36604,265.63658 473.29682,265.60304 C 473.65651,265.59004 474.59082,264.70173 475.37306,263.62895 Z M 479.95246,257.50322 C 479.45457,257.00533 476.57581,259.66558 476.57581,260.62357 C 476.57581,261.04404 477.41824,260.59667 478.44786,259.62937 C 479.47749,258.66209 480.15456,257.70532 479.95246,257.50322 Z M 404.28159,259.06409 C 405.46415,257.50625 405.63117,256.34923 404.57966,256.99909 C 403.60358,257.60234 402.12458,260.37659 402.77905,260.37659 C 403.05747,260.37659 403.73361,259.78597 404.28159,259.06409 Z M 409.03401,251.75157 C 409.02901,251.33907 408.36196,251.79837 407.55068,252.77216 C 406.73941,253.74599 406.08314,254.92724 406.09231,255.39717 C 406.10131,255.86709 406.76898,255.40777 407.57564,254.37658 C 408.38229,253.34533 409.03856,252.16407 409.03401,251.75157 Z M 482.95499,254.37198 C 484.96009,252.15637 483.88666,251.80792 481.82305,254.00453 C 480.85576,255.03416 480.40837,255.87658 480.82885,255.87658 C 481.24932,255.87658 482.20608,255.19951 482.95499,254.37198 Z M 486.91563,249.27296 C 488.45875,246.9489 487.00133,247.26162 485.27858,249.62422 C 484.39252,250.83938 484.22695,251.4512 484.83939,251.24705 C 485.38008,251.06682 486.31438,250.17848 486.91563,249.27296 Z M 411.63168,248.75156 C 412.30738,247.72031 412.55377,246.87656 412.17919,246.87656 C 411.80463,246.87656 410.94531,247.72031 410.26961,248.75156 C 409.59391,249.78282 409.34752,250.62657 409.7221,250.62657 C 410.09666,250.62657 410.95598,249.78282 411.63168,248.75156 Z M 490.38188,245.00155 C 491.05758,243.9703 491.30397,243.12655 490.92939,243.12655 C 490.55483,243.12655 489.69551,243.9703 489.01981,245.00155 C 488.34411,246.03281 488.09772,246.87656 488.4723,246.87656 C 488.84686,246.87656 489.70618,246.03281 490.38188,245.00155 Z M 415.8007,242.10596 C 415.787,241.63603 415.11198,242.04826 414.3007,243.02213 C 413.48942,243.99597 412.83688,245.17722 412.8506,245.64714 C 412.8643,246.11707 413.53933,245.70484 414.3506,244.73097 C 415.16188,243.75714 415.81443,242.57588 415.8007,242.10596 Z M 495.28423,238.25154 C 495.27923,237.83904 494.61218,238.29834 493.8009,239.27212 C 492.98963,240.24596 492.33336,241.42721 492.34253,241.89713 C 492.35153,242.36706 493.0192,241.90773 493.82585,240.87654 C 494.63251,239.84529 495.28878,238.66404 495.28423,238.25154 Z M 419.55071,236.85595 C 419.53701,236.38602 418.86199,236.79825 418.05071,237.77212 C 417.23943,238.74595 416.58689,239.92721 416.60061,240.39713 C 416.61431,240.86706 417.28934,240.45483 418.10061,239.48095 C 418.91189,238.50712 419.56444,237.32587 419.55071,236.85595 Z M 499.03424,233.75153 C 499.02924,233.33902 498.36219,233.79833 497.55091,234.77211 C 496.73963,235.74595 496.08337,236.9272 496.09254,237.39712 C 496.10154,237.86705 496.76921,237.40772 497.57586,236.37653 C 498.38252,235.34528 499.03879,234.16403 499.03424,233.75153 Z M 422.41547,233.52292 C 423.0167,232.6174 423.16878,231.87652 422.75341,231.87652 C 422.33804,231.87652 421.41959,232.75957 420.71241,233.83886 C 419.87558,235.11603 419.75759,235.69089 420.37446,235.48527 C 420.89577,235.31149 421.81422,234.42844 422.41547,233.52292 Z M 502.82588,229.39403 C 502.82588,228.98153 502.15088,229.2549 501.32587,230.00152 C 500.50087,230.74814 499.82587,231.6965 499.82587,232.10901 C 499.82587,232.52151 500.50087,232.24814 501.32587,231.50152 C 502.15088,230.7549 502.82588,229.80653 502.82588,229.39403 Z M 426.32568,227.53412 C 426.32568,226.81993 425.79089,227.1041 424.82568,228.33116 C 424.00068,229.37998 423.32568,230.49031 423.32568,230.79856 C 423.32568,231.1068 424.00068,230.74816 424.82568,230.00152 C 425.65068,229.2549 426.32568,228.14457 426.32568,227.53412 Z M 506.57589,224.89402 C 506.57589,224.48152 505.90089,224.75488 505.07588,225.5015 C 504.25088,226.24812 503.57588,227.19649 503.57588,227.60899 C 503.57588,228.0215 504.25088,227.74813 505.07588,227.00151 C 505.90089,226.25489 506.57589,225.30652 506.57589,224.89402 Z M 430.07569,222.64401 C 430.07569,222.23151 429.40069,222.50488 428.57569,223.2515 C 427.75069,223.99812 427.07568,224.94649 427.07568,225.35899 C 427.07568,225.77149 427.75069,225.49812 428.57569,224.7515 C 429.40069,224.00488 430.07569,223.05651 430.07569,222.64401 Z M 510.70254,220.00313 C 510.20464,219.50524 507.32589,222.16548 507.32589,223.12347 C 507.32589,223.54395 508.16831,223.09657 509.19794,222.12927 C 510.22756,221.16199 510.90464,220.20522 510.70254,220.00313 Z M 433.78407,217.25148 C 433.77907,216.83898 433.11202,217.29828 432.30075,218.27207 C 431.48947,219.2459 430.8332,220.42716 430.84237,220.89708 C 430.85137,221.36701 431.51904,220.90768 432.3257,219.87649 C 433.13236,218.84524 433.78862,217.66398 433.78407,217.25148 Z M 514.45255,215.50312 C 513.95465,215.00523 511.0759,217.66547 511.0759,218.62346 C 511.0759,219.04394 511.91832,218.59656 512.94795,217.62926 C 513.97757,216.66198 514.65465,215.70521 514.45255,215.50312 Z M 436.38174,214.25148 C 437.05745,213.22022 437.30383,212.37647 436.92925,212.37647 C 436.55469,212.37647 435.69537,213.22022 435.01967,214.25148 C 434.34397,215.28273 434.09759,216.12648 434.47216,216.12648 C 434.84672,216.12648 435.70604,215.28273 436.38174,214.25148 Z M 517.45508,212.37187 C 519.46018,210.15626 518.38674,209.80781 516.32314,212.00442 C 515.35585,213.03405 514.90846,213.87647 515.32893,213.87647 C 515.74941,213.87647 516.70617,213.1994 517.45508,212.37187 Z M 440.55904,207.60587 C 440.55004,207.13594 439.88237,207.59527 439.07572,208.62646 C 437.15849,211.0775 437.18115,212.53498 439.10072,210.23088 C 439.912,209.25705 440.56826,208.07579 440.55909,207.60587 Z M 521.20509,207.87186 C 523.21019,205.65625 522.13675,205.3078 520.07315,207.50441 C 519.10586,208.53404 518.65847,209.37646 519.07894,209.37646 C 519.49942,209.37646 520.45618,208.69939 521.20509,207.87186 Z M 444.32573,203.14396 C 444.32573,202.73146 443.65073,203.00483 442.82572,203.75145 C 442.00072,204.49807 441.32572,205.44644 441.32572,205.85894 C 441.32572,206.27144 442.00072,205.99807 442.82572,205.25145 C 443.65073,204.50483 444.32573,203.55646 444.32573,203.14396 Z M 526.07594,201.64396 C 526.07594,201.23146 525.40094,201.50483 524.57593,202.25144 C 523.75093,202.99806 523.07593,203.94643 523.07593,204.35894 C 523.07593,204.77144 523.75093,204.49807 524.57593,203.75145 C 525.40094,203.00483 526.07594,202.05646 526.07594,201.64396 Z M 448.05906,197.82269 C 448.06806,197.44939 447.40074,197.75479 446.57573,198.50144 C 445.75073,199.24805 445.08324,200.39724 445.09241,201.05518 C 445.10461,201.92603 445.50805,201.74139 446.57573,200.37644 C 447.38239,199.34519 448.04989,198.196 448.05906,197.82269 Z M 529.82595,197.14395 C 529.82595,196.73145 529.15094,197.00481 528.32594,197.75143 C 527.50094,198.49805 526.82594,199.44642 526.82594,199.85892 C 526.82594,200.27142 527.50094,199.99806 528.32594,199.25144 C 529.15094,198.50482 529.82595,197.55645 529.82595,197.14395 Z M 450.63177,194.75143 C 451.30748,193.72017 451.55386,192.87642 451.17929,192.87642 C 450.80473,192.87642 449.94541,193.72017 449.26971,194.75143 C 448.594,195.78268 448.34762,196.62643 448.72219,196.62643 C 449.09676,196.62643 449.95608,195.78268 450.63177,194.75143 Z M 533.57596,192.64394 C 533.57596,192.23143 532.90095,192.5048 532.07595,193.25142 C 531.25095,193.99804 530.57595,194.94641 530.57595,195.35891 C 530.57595,195.77141 531.25095,195.49805 532.07595,194.75143 C 532.90095,194.00481 533.57596,193.05644 533.57596,192.64394 Z M 454.82576,188.53402 C 454.82576,187.81983 454.29096,188.104 453.32575,189.33106 C 452.50075,190.37988 451.82575,191.49021 451.82575,191.79846 C 451.82575,192.1067 452.50075,191.74806 453.32575,191.00142 C 454.15075,190.2548 454.82576,189.14447 454.82576,188.53402 Z M 538.07597,187.36493 C 538.07597,186.95243 537.23222,187.40763 536.20096,188.37641 C 535.16971,189.34522 534.32596,190.47539 534.32596,190.88789 C 534.32596,191.30039 535.16971,190.84519 536.20096,189.87641 C 537.23222,188.9076 538.07597,187.77744 538.07597,187.36493 Z M 458.53413,183.5014 C 458.52913,183.0889 457.86209,183.5482 457.05081,184.52198 C 456.23953,185.49582 455.58326,186.67707 455.59244,187.14699 C 455.60144,187.61692 456.2691,187.15759 457.07576,186.1264 C 457.88242,185.09515 458.53868,183.9139 458.53413,183.5014 Z M 540.70514,184.6218 C 542.71024,182.40619 541.6368,182.05774 539.5732,184.25435 C 538.60591,185.28398 538.15852,186.1264 538.57899,186.1264 C 538.99947,186.1264 539.95623,185.44933 540.70514,184.6218 Z M 462.30082,178.3558 C 462.28712,177.88587 461.6121,178.2981 460.80082,179.27197 C 459.98954,180.2458 459.33699,181.42706 459.35072,181.89698 C 459.36442,182.36691 460.03945,181.95468 460.85072,180.98081 C 461.662,180.00697 462.31455,178.82572 462.30082,178.3558 Z M 544.45515,180.12179 C 546.46025,177.90618 545.38681,177.55773 543.32321,179.75434 C 542.35592,180.78397 541.90853,181.62639 542.329,181.62639 C 542.74948,181.62639 543.70624,180.94932 544.45515,180.12179 Z M 465.71179,173.51238 C 465.23355,173.03414 463.123,175.6764 463.12458,176.75138 C 463.12519,177.16388 463.79789,176.69418 464.61948,175.70763 C 465.44108,174.72106 465.93262,173.7332 465.71179,173.51238 Z M 549.326,173.89389 C 549.326,173.48139 548.65099,173.75475 547.82599,174.50137 C 547.00099,175.24799 546.32599,176.19636 546.32599,176.60886 C 546.32599,177.02137 547.00099,176.748 547.82599,176.00138 C 548.65099,175.25476 549.326,174.30639 549.326,173.89389 Z M 468.62305,170.62871 C 469.50911,169.41355 469.67468,168.80173 469.06223,169.00588 C 467.87911,169.40025 465.61603,172.63634 466.54681,172.6028 C 466.90649,172.5898 467.8408,171.7015 468.62305,170.62871 Z M 553.45265,169.003 C 552.95475,168.50511 550.076,171.16535 550.076,172.12334 C 550.076,172.54382 550.91842,172.09644 551.94805,171.12914 C 552.97767,170.16186 553.65474,169.20509 553.45265,169.003 Z M 472.80912,164.10576 C 472.80012,163.63583 472.13245,164.09516 471.3258,165.12635 C 469.40857,167.57739 469.43123,169.03487 471.3508,166.73077 C 472.16208,165.75694 472.81835,164.57568 472.80917,164.10576 Z M 557.20266,164.50299 C 556.70476,164.0051 553.82601,166.66534 553.82601,167.62333 C 553.82601,168.04381 554.66843,167.59643 555.69806,166.62913 C 556.72768,165.66185 557.40475,164.70508 557.20266,164.50299 Z M 560.13205,161.75134 C 560.80776,160.72009 561.05414,159.87634 560.67957,159.87634 C 560.305,159.87634 559.44569,160.72009 558.76999,161.75134 C 558.09428,162.78259 557.8479,163.62635 558.22247,163.62635 C 558.59704,163.62635 559.45635,162.78259 560.13205,161.75134 Z M 476.57581,159.64385 C 476.57581,159.23135 475.90081,159.50472 475.07581,160.25134 C 474.2508,160.99796 473.5758,161.94633 473.5758,162.35883 C 473.5758,162.77133 474.2508,162.49796 475.07581,161.75134 C 475.90081,161.00472 476.57581,160.05635 476.57581,159.64385 Z M 564.71204,155.51233 C 564.23381,155.03409 562.12326,157.67636 562.12483,158.75133 C 562.12544,159.16384 562.79815,158.69413 563.61973,157.70759 C 564.44133,156.72102 564.93287,155.73315 564.71204,155.51233 Z M 480.28419,154.25132 C 480.27919,153.83882 479.61214,154.29802 478.80086,155.27191 C 477.98959,156.24574 477.33332,157.427 477.34249,157.89692 C 477.35149,158.36685 478.01916,157.90752 478.82582,156.87633 C 479.63247,155.84508 480.28874,154.66382 480.28419,154.25132 Z M 568.82605,151.39383 C 568.82605,150.98133 568.15104,151.2547 567.32604,152.00132 C 566.50104,152.74794 565.82604,153.69631 565.82604,154.10881 C 565.82604,154.52131 566.50104,154.24794 567.32604,153.50132 C 568.15104,152.7547 568.82605,151.80633 568.82605,151.39383 Z M 483.71183,149.51232 C 483.2336,149.03408 481.12305,151.67634 481.12462,152.75132 C 481.12523,153.16382 481.79794,152.69412 482.61953,151.70757 C 483.44113,150.721 483.93266,149.73314 483.71183,149.51232 Z M 573.32606,146.11483 C 573.32606,145.70233 572.4823,146.15753 571.45105,147.1263 C 570.4198,148.09512 569.57605,149.22528 569.57605,149.63778 C 569.57605,150.05028 570.4198,149.59508 571.45105,148.62631 C 572.4823,147.65749 573.32606,146.52733 573.32606,146.11483 Z M 486.36817,146.9388 C 487.87596,145.1314 488.18665,144.1263 487.23755,144.1263 C 486.91398,144.1263 486.05115,145.1388 485.32014,146.3763 C 483.7562,149.02384 484.3589,149.34732 486.36817,146.9388 Z M 575.95523,143.3717 C 577.96033,141.15609 576.88689,140.80764 574.82329,143.00425 C 573.856,144.03387 573.40861,144.8763 573.82908,144.8763 C 574.24956,144.8763 575.20632,144.19923 575.95523,143.3717 Z M 490.66564,141.27268 C 491.26688,140.36717 491.41896,139.62629 491.00358,139.62629 C 490.58821,139.62629 489.66976,140.50934 488.96258,141.58863 C 488.12576,142.86579 488.00776,143.44065 488.62464,143.23503 C 489.14595,143.06126 490.06439,142.1782 490.66564,141.27268 Z M 580.82608,137.14379 C 580.82608,136.73129 580.15107,137.00466 579.32607,137.75128 C 578.50107,138.4979 577.82607,139.44627 577.82607,139.85877 C 577.82607,140.27127 578.50107,139.9979 579.32607,139.25128 C 580.15107,138.50467 580.82608,137.5563 580.82608,137.14379 Z M 494.12311,136.87862 C 495.00917,135.66346 495.17474,135.05165 494.5623,135.2558 C 493.37918,135.65017 491.11609,138.88626 492.04687,138.85272 C 492.40656,138.83972 493.34087,137.95141 494.12311,136.87862 Z M 584.13211,134.00127 C 584.80782,132.97002 585.0542,132.12627 584.67963,132.12627 C 584.30507,132.12627 583.44575,132.97002 582.77005,134.00127 C 582.09434,135.03252 581.84796,135.87628 582.22253,135.87628 C 582.5971,135.87628 583.45642,135.03252 584.13211,134.00127 Z M 498.30919,130.35568 C 498.30019,129.88575 497.63252,130.34508 496.82586,131.37626 C 494.90863,133.8273 494.9313,135.28479 496.85086,132.98068 C 497.66213,132.00686 498.3184,130.82561 498.30923,130.35568 Z M 587.95526,129.87166 C 589.96036,127.65605 588.88692,127.3076 586.82332,129.50422 C 585.85603,130.53385 585.40864,131.37626 585.82911,131.37626 C 586.24959,131.37626 587.20635,130.69919 587.95526,129.87166 Z M 501.03184,127.81376 C 502.2144,126.25592 502.38141,125.09889 501.32991,125.74876 C 500.35383,126.35201 498.87482,129.12626 499.5293,129.12626 C 499.80771,129.12626 500.48385,128.53563 501.03184,127.81376 Z M 592.82611,123.64377 C 592.82611,123.23127 592.15111,123.50463 591.3261,124.25125 C 590.5011,124.99787 589.8261,125.94624 589.8261,126.35874 C 589.8261,126.77124 590.5011,126.49787 591.3261,125.75125 C 592.15111,125.00464 592.82611,124.05627 592.82611,123.64377 Z M 505.80921,120.60565 C 505.80021,120.13572 505.13254,120.59505 504.32588,121.62624 C 502.40865,124.07728 502.43132,125.53476 504.35088,123.23066 C 505.16215,122.25683 505.81842,121.07558 505.80925,120.60565 Z M 596.12337,120.37859 C 597.00943,119.16342 597.175,118.55161 596.56256,118.75576 C 595.37944,119.15013 593.11635,122.38622 594.04713,122.35268 C 594.40682,122.33968 595.34113,121.45137 596.12337,120.37859 Z M 508.53185,118.06373 C 509.71442,116.50589 509.88143,115.34887 508.82993,115.99874 C 507.85385,116.60198 506.37484,119.37623 507.02932,119.37623 C 507.30773,119.37623 507.98387,118.78561 508.53185,118.06373 Z M 599.95529,116.37163 C 601.96039,114.15602 600.88695,113.80757 598.82335,116.00419 C 597.85606,117.03381 597.40867,117.87623 597.82914,117.87623 C 598.24962,117.87623 599.20638,117.19916 599.95529,116.37163 Z M 512.96191,111.26222 C 512.48367,110.78399 510.37312,113.42624 510.3747,114.50122 C 510.37531,114.91372 511.04801,114.44402 511.8696,113.45747 C 512.6912,112.47091 513.18274,111.48305 512.96191,111.26222 Z M 604.82614,110.14373 C 604.82614,109.73123 604.15114,110.0046 603.32613,110.75121 C 602.50113,111.49783 601.82613,112.4462 601.82613,112.8587 C 601.82613,113.2712 602.50113,112.99784 603.32613,112.25122 C 604.15114,111.5046 604.82614,110.55623 604.82614,110.14373 Z M 517.03428,106.2512 C 517.02928,105.8387 516.36223,106.2979 515.55096,107.2718 C 514.73968,108.24562 514.08341,109.42687 514.09259,109.8968 C 514.10159,110.36673 514.76925,109.9074 515.57591,108.87621 C 516.38257,107.84495 517.03883,106.6637 517.03428,106.2512 Z M 608.1234,106.87855 C 609.00946,105.66339 609.17503,105.05157 608.56259,105.25572 C 607.37947,105.6501 605.11638,108.88618 606.04716,108.85264 C 606.40685,108.83964 607.34116,107.95133 608.1234,106.87855 Z M 520.82592,101.89371 C 520.82592,101.48121 520.15092,101.75458 519.32592,102.50119 C 518.50092,103.24781 517.82592,104.19618 517.82592,104.60868 C 517.82592,105.02118 518.50092,104.74781 519.32592,104.00119 C 520.15092,103.25458 520.82592,102.30621 520.82592,101.89371 Z M 612.16595,102.27259 C 613.64859,100.03961 612.98125,100.19802 610.76939,102.60408 C 609.76935,103.69192 609.42852,104.4328 610.01197,104.25047 C 610.59541,104.06815 611.5647,103.17811 612.16595,102.27259 Z M 523.66572,98.522584 C 525.20884,96.198523 523.75142,96.511244 522.02867,98.87384 C 521.14261,100.089 520.97704,100.70082 521.58949,100.49667 C 522.13018,100.31644 523.06448,99.428099 523.66572,98.522584 Z M 616.82617,96.643702 C 616.82617,96.2312 616.15117,96.504569 615.32616,97.251181 C 614.50116,97.9978 613.82616,98.94617 613.82616,99.358671 C 613.82616,99.771172 614.50116,99.497804 615.32616,98.751184 C 616.15117,98.004572 616.82617,97.056203 616.82617,96.643702 Z M 528.32594,91.953635 C 528.32594,91.645384 527.65094,92.004035 526.82594,92.750669 C 526.00094,93.497288 525.32593,94.607614 525.32593,95.218063 C 525.32593,95.93226 525.86073,95.648091 526.82594,94.421021 C 527.65094,93.372203 528.32594,92.261878 528.32594,91.953635 Z M 620.95282,91.752312 C 620.45492,91.254415 617.57617,93.914657 617.57617,94.872657 C 617.57617,95.293123 618.41859,94.845737 619.44822,93.878454 C 620.47784,92.911169 621.15492,91.954407 620.95282,91.752312 Z M 530.95511,89.371065 C 532.96021,87.155456 531.88678,86.807004 529.82317,89.00362 C 528.85589,90.033246 528.4085,90.875664 528.82897,90.875664 C 529.24944,90.875664 530.2062,90.198596 530.95511,89.371065 Z M 623.95535,89.371065 C 625.96045,87.155456 624.88702,86.807004 622.82341,89.00362 C 621.85612,90.033246 621.40873,90.875664 621.82921,90.875664 C 622.24968,90.875664 623.20644,90.198596 623.95535,89.371065 Z M 534.63199,84.500651 C 535.3077,83.469398 535.55408,82.625646 535.17951,82.625646 C 534.80494,82.625646 533.94562,83.469398 533.26993,84.500651 C 532.59422,85.531904 532.34784,86.375656 532.72241,86.375656 C 533.09697,86.375656 533.95629,85.531904 534.63199,84.500651 Z M 629.20284,82.752287 C 628.70495,82.254394 625.82619,84.914636 625.82619,85.872631 C 625.82619,86.293104 626.66862,85.845711 627.69824,84.87843 C 628.72787,83.911147 629.40494,82.954383 629.20284,82.752287 Z M 539.57597,77.703596 C 539.57597,77.395351 538.90097,77.754016 538.07597,78.500636 C 537.25097,79.247252 536.57596,80.357578 536.57596,80.968027 C 536.57596,81.68222 537.11076,81.398054 538.07597,80.170987 C 538.90097,79.122167 539.57597,78.011841 539.57597,77.703596 Z M 632.13224,80.00064 C 632.80794,78.969387 633.05433,78.125635 632.67975,78.125635 C 632.30519,78.125635 631.44587,78.969387 630.77017,80.00064 C 630.09447,81.031892 629.84808,81.875644 630.22266,81.875644 C 630.59722,81.875644 631.45654,81.031892 632.13224,80.00064 Z M 635.95538,75.871031 C 637.96048,73.655422 636.88705,73.30697 634.82344,75.503585 C 633.85615,76.533211 633.40876,77.375633 633.82924,77.375633 C 634.24971,77.375633 635.20647,76.698562 635.95538,75.871031 Z M 542.20514,75.121029 C 544.21024,72.90542 543.13681,72.556968 541.0732,74.753584 C 540.10592,75.783209 539.65852,76.625631 540.079,76.625631 C 540.49947,76.625631 541.45623,75.94856 542.20514,75.121029 Z M 640.37348,70.877964 C 641.25954,69.662799 641.42511,69.050983 640.81267,69.255132 C 639.62955,69.649506 637.36646,72.885597 638.29725,72.852053 C 638.65693,72.839093 639.59124,71.95075 640.37348,70.877964 Z M 545.88202,70.250615 C 546.55772,69.219362 546.80411,68.37561 546.42953,68.37561 C 546.05497,68.37561 545.19565,69.219362 544.51995,70.250615 C 543.84425,71.281867 543.59786,72.12562 543.97244,72.12562 C 544.347,72.12562 545.20632,71.281867 545.88202,70.250615 Z M 644.2054,66.871008 C 646.2105,64.655398 645.13707,64.306947 643.07346,66.503562 C 642.10617,67.533188 641.65878,68.37561 642.07926,68.37561 C 642.49973,68.37561 643.45649,67.698539 644.2054,66.871008 Z M 549.36833,65.938104 C 551.08022,63.88604 551.26885,62.574393 549.66005,63.909581 C 548.31474,65.026092 546.79802,67.625608 547.49188,67.625608 C 547.74965,67.625608 548.59405,66.866231 549.36833,65.938104 Z"
           id="path5143"
           inkscape:connector-curvature="0" />
        <polyline
           points="45.5,433.5 51.5,433.5 "
           id="polyline16"
           style="font-style:normal;font-weight:400;font-size:medium;font-family:'Source Sans Pro';vector-effect:none;fill:none;fill-rule:evenodd;stroke:black;stroke-width:16.3698;stroke-linecap:round;stroke-linejoin:round;stroke-opacity:1"
           transform="matrix(1.00625,0,0,1.00625,26.418729,45.34268)" />
        <polyline
           points="618.5,433.5 612.5,433.5 "
           id="polyline18"
           style="font-style:normal;font-weight:400;font-size:medium;font-family:'Source Sans Pro';vector-effect:none;fill:none;fill-rule:evenodd;stroke:black;stroke-width:16.3698;stroke-linecap:round;stroke-linejoin:round;stroke-opacity:1"
           transform="matrix(1.00625,0,0,1.00625,26.418729,45.34268)" />
        <polyline
           points="45.5,349.5 51.5,349.5 "
           id="polyline46"
           style="font-style:normal;font-weight:400;font-size:medium;font-family:'Source Sans Pro';vector-effect:none;fill:none;fill-rule:evenodd;stroke:black;stroke-width:16.3698;stroke-linecap:round;stroke-linejoin:round;stroke-opacity:1"
           transform="matrix(1.00625,0,0,1.00625,26.418729,45.34268)" />
        <polyline
           points="618.5,349.5 612.5,349.5 "
           id="polyline48"
           style="font-style:normal;font-weight:400;font-size:medium;font-family:'Source Sans Pro';vector-effect:none;fill:none;fill-rule:evenodd;stroke:black;stroke-width:16.3698;stroke-linecap:round;stroke-linejoin:round;stroke-opacity:1"
           transform="matrix(1.00625,0,0,1.00625,26.418729,45.34268)" />
        <polyline
           points="45.5,266.5 51.5,266.5 "
           id="polyline76"
           style="font-style:normal;font-weight:400;font-size:medium;font-family:'Source Sans Pro';vector-effect:none;fill:none;fill-rule:evenodd;stroke:black;stroke-width:16.3698;stroke-linecap:round;stroke-linejoin:round;stroke-opacity:1"
           transform="matrix(1.00625,0,0,1.00625,26.418729,45.34268)" />
        <polyline
           points="618.5,266.5 612.5,266.5 "
           id="polyline78"
           style="font-style:normal;font-weight:400;font-size:medium;font-family:'Source Sans Pro';vector-effect:none;fill:none;fill-rule:evenodd;stroke:black;stroke-width:16.3698;stroke-linecap:round;stroke-linejoin:round;stroke-opacity:1"
           transform="matrix(1.00625,0,0,1.00625,26.418729,45.34268)" />
        <polyline
           points="45.5,182.5 51.5,182.5 "
           id="polyline106"
           style="font-style:normal;font-weight:400;font-size:medium;font-family:'Source Sans Pro';vector-effect:none;fill:none;fill-rule:evenodd;stroke:black;stroke-width:16.3698;stroke-linecap:round;stroke-linejoin:round;stroke-opacity:1"
           transform="matrix(1.00625,0,0,1.00625,26.418729,45.34268)" />
        <polyline
           points="618.5,182.5 612.5,182.5 "
           id="polyline108"
           style="font-style:normal;font-weight:400;font-size:medium;font-family:'Source Sans Pro';vector-effect:none;fill:none;fill-rule:evenodd;stroke:black;stroke-width:16.3698;stroke-linecap:round;stroke-linejoin:round;stroke-opacity:1"
           transform="matrix(1.00625,0,0,1.00625,26.418729,45.34268)" />
        <polyline
           points="45.5,98.5 51.5,98.5 "
           id="polyline136"
           style="font-style:normal;font-weight:400;font-size:medium;font-family:'Source Sans Pro';vector-effect:none;fill:none;fill-rule:evenodd;stroke:black;stroke-width:16.3698;stroke-linecap:round;stroke-linejoin:round;stroke-opacity:1"
           transform="matrix(1.00625,0,0,1.00625,26.418729,45.34268)" />
        <polyline
           points="618.5,98.5 612.5,98.5 "
           id="polyline138"
           style="font-style:normal;font-weight:400;font-size:medium;font-family:'Source Sans Pro';vector-effect:none;fill:none;fill-rule:evenodd;stroke:black;stroke-width:16.3698;stroke-linecap:round;stroke-linejoin:round;stroke-opacity:1"
           transform="matrix(1.00625,0,0,1.00625,26.418729,45.34268)" />
        <polyline
           points="45.5,15.5 618.5,15.5 "
           id="polyline162"
           style="font-style:normal;font-weight:400;font-size:medium;font-family:'Source Sans Pro';vector-effect:none;fill:none;fill-rule:evenodd;stroke:#d9d9d9;stroke-width:16.3698;stroke-linecap:round;stroke-linejoin:round;stroke-dasharray:16.3698, 32.7399;stroke-dashoffset:0;stroke-opacity:1"
           transform="matrix(1.00625,0,0,1.00625,26.418729,45.34268)" />
        <polyline
           points="45.5,15.5 51.5,15.5 "
           id="polyline166"
           style="font-style:normal;font-weight:400;font-size:medium;font-family:'Source Sans Pro';vector-effect:none;fill:none;fill-rule:evenodd;stroke:black;stroke-width:16.3698;stroke-linecap:round;stroke-linejoin:round;stroke-opacity:1"
           transform="matrix(1.00625,0,0,1.00625,26.418729,45.34268)" />
        <polyline
           points="618.5,15.5 612.5,15.5 "
           id="polyline168"
           style="font-style:normal;font-weight:400;font-size:medium;font-family:'Source Sans Pro';vector-effect:none;fill:none;fill-rule:evenodd;stroke:black;stroke-width:16.3698;stroke-linecap:round;stroke-linejoin:round;stroke-opacity:1"
           transform="matrix(1.00625,0,0,1.00625,26.418729,45.34268)" />
        <polyline
           points="45.5,450.5 45.5,15.5 "
           id="polyline192"
           style="font-style:normal;font-weight:400;font-size:medium;font-family:'Source Sans Pro';vector-effect:none;fill:none;fill-rule:evenodd;stroke:#d9d9d9;stroke-width:16.3698;stroke-linecap:round;stroke-linejoin:round;stroke-dasharray:16.3698, 32.7399;stroke-dashoffset:0;stroke-opacity:1"
           transform="matrix(1.00625,0,0,1.00625,26.418729,45.34268)" />
        <polyline
           points="45.5,450.5 45.5,444.5 "
           id="polyline196"
           style="font-style:normal;font-weight:400;font-size:medium;font-family:'Source Sans Pro';vector-effect:none;fill:none;fill-rule:evenodd;stroke:black;stroke-width:16.3698;stroke-linecap:round;stroke-linejoin:round;stroke-opacity:1"
           transform="matrix(1.00625,0,0,1.00625,26.418729,45.34268)" />
        <polyline
           points="45.5,15.5 45.5,21.5 "
           id="polyline198"
           style="font-style:normal;font-weight:400;font-size:medium;font-family:'Source Sans Pro';vector-effect:none;fill:none;fill-rule:evenodd;stroke:black;stroke-width:16.3698;stroke-linecap:round;stroke-linejoin:round;stroke-opacity:1"
           transform="matrix(1.00625,0,0,1.00625,26.418729,45.34268)" />
        <polyline
           points="141.5,450.5 141.5,444.5 "
           id="polyline226"
           style="font-style:normal;font-weight:400;font-size:medium;font-family:'Source Sans Pro';vector-effect:none;fill:none;fill-rule:evenodd;stroke:black;stroke-width:16.3698;stroke-linecap:round;stroke-linejoin:round;stroke-opacity:1"
           transform="matrix(1.00625,0,0,1.00625,26.418729,45.34268)" />
        <polyline
           points="141.5,15.5 141.5,21.5 "
           id="polyline228"
           style="font-style:normal;font-weight:400;font-size:medium;font-family:'Source Sans Pro';vector-effect:none;fill:none;fill-rule:evenodd;stroke:black;stroke-width:16.3698;stroke-linecap:round;stroke-linejoin:round;stroke-opacity:1"
           transform="matrix(1.00625,0,0,1.00625,26.418729,45.34268)" />
        <polyline
           points="236.5,450.5 236.5,444.5 "
           id="polyline256"
           style="font-style:normal;font-weight:400;font-size:medium;font-family:'Source Sans Pro';vector-effect:none;fill:none;fill-rule:evenodd;stroke:black;stroke-width:16.3698;stroke-linecap:round;stroke-linejoin:round;stroke-opacity:1"
           transform="matrix(1.00625,0,0,1.00625,26.418729,45.34268)" />
        <polyline
           points="236.5,15.5 236.5,21.5 "
           id="polyline258"
           style="font-style:normal;font-weight:400;font-size:medium;font-family:'Source Sans Pro';vector-effect:none;fill:none;fill-rule:evenodd;stroke:black;stroke-width:16.3698;stroke-linecap:round;stroke-linejoin:round;stroke-opacity:1"
           transform="matrix(1.00625,0,0,1.00625,26.418729,45.34268)" />
        <polyline
           points="332.5,450.5 332.5,444.5 "
           id="polyline286"
           style="font-style:normal;font-weight:400;font-size:medium;font-family:'Source Sans Pro';vector-effect:none;fill:none;fill-rule:evenodd;stroke:black;stroke-width:16.3698;stroke-linecap:round;stroke-linejoin:round;stroke-opacity:1"
           transform="matrix(1.00625,0,0,1.00625,26.418729,45.34268)" />
        <polyline
           points="332.5,15.5 332.5,21.5 "
           id="polyline288"
           style="font-style:normal;font-weight:400;font-size:medium;font-family:'Source Sans Pro';vector-effect:none;fill:none;fill-rule:evenodd;stroke:black;stroke-width:16.3698;stroke-linecap:round;stroke-linejoin:round;stroke-opacity:1"
           transform="matrix(1.00625,0,0,1.00625,26.418729,45.34268)" />
        <polyline
           points="427.5,450.5 427.5,444.5 "
           id="polyline316"
           style="font-style:normal;font-weight:400;font-size:medium;font-family:'Source Sans Pro';vector-effect:none;fill:none;fill-rule:evenodd;stroke:black;stroke-width:16.3698;stroke-linecap:round;stroke-linejoin:round;stroke-opacity:1"
           transform="matrix(1.00625,0,0,1.00625,26.418729,45.34268)" />
        <polyline
           points="427.5,15.5 427.5,21.5 "
           id="polyline318"
           style="font-style:normal;font-weight:400;font-size:medium;font-family:'Source Sans Pro';vector-effect:none;fill:none;fill-rule:evenodd;stroke:black;stroke-width:16.3698;stroke-linecap:round;stroke-linejoin:round;stroke-opacity:1"
           transform="matrix(1.00625,0,0,1.00625,26.418729,45.34268)" />
        <polyline
           points="523.5,450.5 523.5,444.5 "
           id="polyline346"
           style="font-style:normal;font-weight:400;font-size:medium;font-family:'Source Sans Pro';vector-effect:none;fill:none;fill-rule:evenodd;stroke:black;stroke-width:16.3698;stroke-linecap:round;stroke-linejoin:round;stroke-opacity:1"
           transform="matrix(1.00625,0,0,1.00625,26.418729,45.34268)" />
        <polyline
           points="523.5,15.5 523.5,21.5 "
           id="polyline348"
           style="font-style:normal;font-weight:400;font-size:medium;font-family:'Source Sans Pro';vector-effect:none;fill:none;fill-rule:evenodd;stroke:black;stroke-width:16.3698;stroke-linecap:round;stroke-linejoin:round;stroke-opacity:1"
           transform="matrix(1.00625,0,0,1.00625,26.418729,45.34268)" />
        <polyline
           points="45.5,15.5 45.5,450.5 618.5,450.5 618.5,15.5 45.5,15.5 "
           id="polyline402"
           style="font-style:normal;font-weight:400;font-size:medium;font-family:'Source Sans Pro';vector-effect:none;fill:none;fill-rule:evenodd;stroke:black;stroke-width:16.3698;stroke-linecap:round;stroke-linejoin:round;stroke-opacity:1"
           transform="matrix(1.00625,0,0,1.00625,26.418729,45.34268)" />
        <path
           style="color:black;font-style:normal;font-variant:normal;font-weight:400;font-stretch:normal;font-size:medium;line-height:normal;font-family:'Source Sans Pro';font-variant-ligatures:normal;font-variant-position:normal;font-variant-caps:normal;font-variant-numeric:normal;font-variant-alternates:normal;font-feature-settings:normal;text-indent:0;text-align:start;text-decoration:none;text-decoration-line:none;text-decoration-style:solid;text-decoration-color:black;letter-spacing:normal;word-spacing:normal;text-transform:none;writing-mode:lr-tb;direction:ltr;text-orientation:mixed;dominant-baseline:auto;baseline-shift:baseline;text-anchor:start;white-space:normal;shape-padding:0;clip-rule:nonzero;display:inline;overflow:visible;visibility:visible;opacity:1;isolation:auto;mix-blend-mode:normal;color-interpolation:sRGB;color-interpolation-filters:linearRGB;solid-color:black;solid-opacity:1;vector-effect:none;fill:black;fill-opacity:1;fill-rule:evenodd;stroke:none;stroke-width:16.4723;stroke-linecap:round;stroke-linejoin:round;stroke-miterlimit:4;stroke-dasharray:none;stroke-dashoffset:0;stroke-opacity:1;color-rendering:auto;image-rendering:auto;shape-rendering:auto;text-rendering:auto;enable-background:accumulate"
           d="M 72.195243,60.428569 A 0.50317531,0.50317531 0 0 0 71.876859,60.550419 A 0.50317531,0.50317531 0 0 0 71.857209,60.566139 A 0.50317531,0.50317531 0 0 0 71.839519,60.583829 A 0.50317531,0.50317531 0 0 0 71.837519,60.587729 A 0.50317531,0.50317531 0 0 0 71.806079,60.621139 A 0.50317531,0.50317531 0 0 0 71.804079,60.625039 A 0.50317531,0.50317531 0 0 0 71.699916,61.022036 V 498.65831 A 0.50317531,0.50317531 0 0 0 72.203041,499.16143 H 648.78435 A 0.50317531,0.50317531 0 0 0 649.28747,498.65831 V 60.939555 A 0.50317531,0.50317531 0 0 0 648.78435,60.43643 H 72.283682 A 0.50317531,0.50317531 0 0 0 72.195242,60.42853 Z M 72.706229,61.44268 H 648.28122 V 498.15518 H 72.706229 Z"
           id="polyline494"
           inkscape:connector-curvature="0" />
        <path
           style="opacity:1;fill:none;fill-opacity:0;fill-rule:evenodd;stroke:black;stroke-width:12.2775px;stroke-linecap:butt;stroke-linejoin:miter;stroke-opacity:1"
           d="M 235.71866,60.537059 L 356.3757,60.939555"
           id="path5119"
           inkscape:connector-type="polyline"
           inkscape:connector-curvature="0"
           inkscape:connection-end="#polyline162" />
        <path
           style="opacity:1;fill:none;fill-opacity:0;fill-rule:evenodd;stroke:black;stroke-width:12.2775px;stroke-linecap:butt;stroke-linejoin:miter;stroke-opacity:1"
           d="M 143.14365,498.15521 L 72.203033,498.65833"
           id="path5121"
           inkscape:connector-type="polyline"
           inkscape:connector-curvature="0" />
      </g>
    </g>
  </g>
  <metadata
     id="metadata857">
    <rdf:RDF>
      <cc:Work
         rdf:about="">
        <dc:title>Oncodash icon — BMI</dc:title>
        <dc:date>2022-03-23</dc:date>
        <dc:creator>
          <cc:Agent>
            <dc:title>nojhan</dc:title>
          </cc:Agent>
        </dc:creator>
      </cc:Work>
    </rdf:RDF>
  </metadata>
</svg>
