<?xml version="1.0" encoding="UTF-8"?> <svg xmlns="http://www.w3.org/2000/svg" width="300" height="85.304" viewBox="0 0 300 85.304"><defs><style>.e01ca24a-1f8b-4d8c-ba44-de86eacc6b9b{fill:#fff;}</style></defs><g id="ae326731-0639-426a-880a-73c98d222bc0" data-name="Layer 2"><g id="a81ce297-9bd6-4b62-bcd8-6323cad32645" data-name="Layer 1"><path class="e01ca24a-1f8b-4d8c-ba44-de86eacc6b9b" d="M9.624,21.062H0V56.29H11.205a22.247,22.247,0,0,0,10.13-2.16,15.506,15.506,0,0,0,6.575-6.15,18.617,18.617,0,0,0,2.3-9.459Q30.215,21.063,9.624,21.062ZM21.532,48.5q-3.578,3.328-10.523,3.329H5v-26.3h5.365q7.483.011,11.112,3.277t3.628,9.964Q25.108,45.168,21.532,48.5Z"></path><polygon class="e01ca24a-1f8b-4d8c-ba44-de86eacc6b9b" points="46.537 40.609 62.455 40.609 62.455 36.289 46.526 36.289 46.526 25.373 63.065 25.373 63.045 21.062 41.606 21.062 41.606 56.301 63.313 56.301 63.706 51.98 46.537 51.98 46.537 40.609"></polygon><path class="e01ca24a-1f8b-4d8c-ba44-de86eacc6b9b" d="M83.222,26.934A11.473,11.473,0,0,1,89.6,25.146a10.529,10.529,0,0,1,5.168,1.271,9.552,9.552,0,0,1,3.722,3.845l3.866-2.884q-4.074-6.791-12.7-6.791a17.289,17.289,0,0,0-9.128,2.377,16.545,16.545,0,0,0-6.13,6.606,20.808,20.808,0,0,0-2.2,9.768,20.264,20.264,0,0,0,1.984,9.3A14.037,14.037,0,0,0,79.9,54.647a17.892,17.892,0,0,0,8.91,2.067,16.873,16.873,0,0,0,7.991-1.86,13.443,13.443,0,0,0,5.5-5.386l-3.721-2.853a10.432,10.432,0,0,1-4.021,4.135,11.366,11.366,0,0,1-5.665,1.4,10.871,10.871,0,0,1-8.507-3.38q-3.05-3.369-3.05-9.479A16.676,16.676,0,0,1,78.9,31.927,12.1,12.1,0,0,1,83.222,26.934Z"></path><rect class="e01ca24a-1f8b-4d8c-ba44-de86eacc6b9b" x="111.039" y="21.062" width="5.013" height="35.228"></rect><path class="e01ca24a-1f8b-4d8c-ba44-de86eacc6b9b" d="M138.38,21.062h-9.624V56.29h11.205a22.247,22.247,0,0,0,10.13-2.16,15.5,15.5,0,0,0,6.574-6.15,18.694,18.694,0,0,0,2.306-9.459Q158.971,21.063,138.38,21.062Zm11.9,27.434q-3.576,3.328-10.523,3.329h-6v-26.3h5.354q7.5.011,11.113,3.277t3.617,9.964Q153.854,45.168,150.277,48.5Z"></path><polygon class="e01ca24a-1f8b-4d8c-ba44-de86eacc6b9b" points="175.292 40.609 191.201 40.609 191.201 36.289 175.272 36.289 175.272 25.373 191.811 25.373 191.79 21.062 170.362 21.062 170.362 56.301 192.069 56.301 192.472 51.98 175.292 51.98 175.292 40.609"></polygon><path class="e01ca24a-1f8b-4d8c-ba44-de86eacc6b9b" d="M229.23,51.422a5.265,5.265,0,0,1-2.873.765,4.773,4.773,0,0,1-2.6-.62,8.768,8.768,0,0,1-2.212-2.5L217.777,43.5a8.37,8.37,0,0,0-2.729-2.677,15.434,15.434,0,0,0,5.5-1.344,8.786,8.786,0,0,0,5.365-8.528,8.846,8.846,0,0,0-3.277-7.236q-3.271-2.667-9.572-2.657H202.727V56.29h4.92v-15.3h.785a4.186,4.186,0,0,1,3.432,2.233l5.9,8.827a10.546,10.546,0,0,0,3.566,3.546,8.791,8.791,0,0,0,4.321,1.034,7.554,7.554,0,0,0,4.713-1.334Zm-16.87-14.43h-4.713V25.177h5.106q4.166.009,6.171,1.54a5.168,5.168,0,0,1,2.068,4.362,4.929,4.929,0,0,1-2.212,4.5A11.975,11.975,0,0,1,212.36,36.992Z"></path><rect class="e01ca24a-1f8b-4d8c-ba44-de86eacc6b9b" x="0.027" y="72.267" width="1.091" height="10.061"></rect><path class="e01ca24a-1f8b-4d8c-ba44-de86eacc6b9b" d="M11.972,75.158a2.64,2.64,0,0,0-1.608.553,3.436,3.436,0,0,0-1.141,1.672,2.689,2.689,0,0,0-.694-1.672,2.039,2.039,0,0,0-1.488-.553,2.443,2.443,0,0,0-1.623.623,3.92,3.92,0,0,0-1.112,1.928l.085-2.423H3.342v7.042H4.363a18.319,18.319,0,0,1,.2-3,7.06,7.06,0,0,1,.553-1.906,2.519,2.519,0,0,1,.786-1,1.642,1.642,0,0,1,.935-.3,1.178,1.178,0,0,1,1.07.517,2.937,2.937,0,0,1,.333,1.566v4.123h1.02a18.861,18.861,0,0,1,.2-3,6.943,6.943,0,0,1,.545-1.906,2.529,2.529,0,0,1,.787-1,1.62,1.62,0,0,1,.921-.3q1.459,0,1.431,2.083l-.028,4.123h1.034l.028-4.251a3.461,3.461,0,0,0-.559-2.168A1.953,1.953,0,0,0,11.972,75.158Z"></path><path class="e01ca24a-1f8b-4d8c-ba44-de86eacc6b9b" d="M21.317,75.576a2.624,2.624,0,0,0-1.509-.418,2.569,2.569,0,0,0-1.531.475,3.215,3.215,0,0,0-1.048,1.3l.042-1.643H16.223v9.876h1.034V82.328l-.014-.921a1.985,1.985,0,0,0,.779.751,2.353,2.353,0,0,0,1.162.283,3.123,3.123,0,0,0,1.772-.51,3.4,3.4,0,0,0,1.19-1.41,4.808,4.808,0,0,0,.425-2.076,4.292,4.292,0,0,0-.319-1.707A2.6,2.6,0,0,0,21.317,75.576Zm-.461,5.1a2.048,2.048,0,0,1-1.7.815,1.765,1.765,0,0,1-1.4-.588,2.371,2.371,0,0,1-.517-1.622,4.029,4.029,0,0,1,.319-1.644,2.786,2.786,0,0,1,.864-1.134,2.008,2.008,0,0,1,1.24-.411,1.589,1.589,0,0,1,1.339.645,2.882,2.882,0,0,1,.489,1.778A3.409,3.409,0,0,1,20.856,80.677Z"></path><path class="e01ca24a-1f8b-4d8c-ba44-de86eacc6b9b" d="M27.827,75.158a2.17,2.17,0,0,0-1.46.6,3.863,3.863,0,0,0-1.02,2.034l.071-2.508H24.383l.015,2.522v4.52h1.02a14,14,0,0,1,.566-4.683,1.912,1.912,0,0,1,1.8-1.453,2.993,2.993,0,0,1,.312.015,1.492,1.492,0,0,1,.283.056l.156-1.006a1.077,1.077,0,0,0-.3-.078A3.448,3.448,0,0,0,27.827,75.158Z"></path><path class="e01ca24a-1f8b-4d8c-ba44-de86eacc6b9b" d="M32.35,75.158a3.2,3.2,0,0,0-1.785.5A3.307,3.307,0,0,0,29.381,77a4.32,4.32,0,0,0-.418,1.927,3.7,3.7,0,0,0,.85,2.572,2.991,2.991,0,0,0,2.338.942,3.115,3.115,0,0,0,1.758-.5,3.335,3.335,0,0,0,1.169-1.353,4.363,4.363,0,0,0,.418-1.934,3.7,3.7,0,0,0-.843-2.558A2.936,2.936,0,0,0,32.35,75.158ZM33.8,80.713a2,2,0,0,1-1.644.779,1.926,1.926,0,0,1-1.551-.659,2.867,2.867,0,0,1-.56-1.906,3.522,3.522,0,0,1,.291-1.474,2.4,2.4,0,0,1,.807-1,2.094,2.094,0,0,1,1.226-.361,1.845,1.845,0,0,1,1.509.666,2.923,2.923,0,0,1,.546,1.9A3.192,3.192,0,0,1,33.8,80.713Z"></path><polygon class="e01ca24a-1f8b-4d8c-ba44-de86eacc6b9b" points="39.486 81.492 37.53 75.286 36.425 75.286 38.706 82.328 40.152 82.328 42.9 75.286 41.866 75.286 39.486 81.492"></polygon><rect class="e01ca24a-1f8b-4d8c-ba44-de86eacc6b9b" x="43.977" y="75.286" width="1.02" height="7.042"></rect><path class="e01ca24a-1f8b-4d8c-ba44-de86eacc6b9b" d="M44.516,72.267A.66.66,0,0,0,44,72.48a.717.717,0,0,0-.192.5.734.734,0,0,0,.185.5.745.745,0,0,0,1.041,0,.74.74,0,0,0,0-.992A.66.66,0,0,0,44.516,72.267Z"></path><path class="e01ca24a-1f8b-4d8c-ba44-de86eacc6b9b" d="M50.935,75.158a2.568,2.568,0,0,0-1.75.652,3.839,3.839,0,0,0-1.1,1.884l.085-2.408H47.123v7.042h1.02a16.219,16.219,0,0,1,.333-3.7,4.132,4.132,0,0,1,.907-1.935,1.792,1.792,0,0,1,1.3-.573,1.235,1.235,0,0,1,1.112.524,2.847,2.847,0,0,1,.347,1.559l-.028,4.123h1.034l.029-4.251a3.49,3.49,0,0,0-.581-2.168A1.974,1.974,0,0,0,50.935,75.158Z"></path><path class="e01ca24a-1f8b-4d8c-ba44-de86eacc6b9b" d="M60.386,76.32a2.025,2.025,0,0,0-.8-.836,2.427,2.427,0,0,0-1.268-.326,3.184,3.184,0,0,0-1.778.5,3.4,3.4,0,0,0-1.2,1.382,4.533,4.533,0,0,0-.432,2.026,3.663,3.663,0,0,0,.716,2.338,2.469,2.469,0,0,0,2.061.907,2.6,2.6,0,0,0,1.559-.489A3.37,3.37,0,0,0,60.315,80.5l-.028,1.034a3.381,3.381,0,0,1-.6,2.147,2.42,2.42,0,0,1-1.934.673,4.81,4.81,0,0,1-1.048-.12,4.137,4.137,0,0,1-1.006-.362l-.284.936a3.56,3.56,0,0,0,1.084.375,6.56,6.56,0,0,0,1.226.121q3.585,0,3.585-3.925V75.286h-.779Zm-.418,3.514a2.751,2.751,0,0,1-.879,1.119,2.061,2.061,0,0,1-1.254.412,1.643,1.643,0,0,1-1.36-.624,2.757,2.757,0,0,1-.5-1.757,3.57,3.57,0,0,1,.3-1.5,2.433,2.433,0,0,1,.829-1.02,2.117,2.117,0,0,1,1.239-.369,1.829,1.829,0,0,1,1.424.567,2.247,2.247,0,0,1,.518,1.573A3.852,3.852,0,0,1,59.968,79.834Z"></path><path class="e01ca24a-1f8b-4d8c-ba44-de86eacc6b9b" d="M69.8,76.107a1.857,1.857,0,0,1,1.728,1.007l.794-.6a2.679,2.679,0,0,0-2.494-1.36,3.413,3.413,0,0,0-1.814.475,3.267,3.267,0,0,0-1.218,1.325,4.226,4.226,0,0,0-.44,1.969,3.61,3.61,0,0,0,.879,2.586,3.173,3.173,0,0,0,2.423.928,2.907,2.907,0,0,0,2.664-1.374l-.765-.595a1.933,1.933,0,0,1-.794.765,2.336,2.336,0,0,1-1.063.241,2.123,2.123,0,0,1-1.672-.652,2.768,2.768,0,0,1-.581-1.9,3.089,3.089,0,0,1,.645-2.047A2.114,2.114,0,0,1,69.8,76.107Z"></path><path class="e01ca24a-1f8b-4d8c-ba44-de86eacc6b9b" d="M75.859,81.442a1.318,1.318,0,0,1-.411.064.8.8,0,0,1-.651-.241,1.087,1.087,0,0,1-.2-.708V71.842H73.564v8.842a1.856,1.856,0,0,0,.425,1.276,1.649,1.649,0,0,0,1.3.481,2.284,2.284,0,0,0,.644-.092,1.357,1.357,0,0,0,.518-.262l-.284-.779A1.406,1.406,0,0,1,75.859,81.442Z"></path><path class="e01ca24a-1f8b-4d8c-ba44-de86eacc6b9b" d="M77.857,72.267a.661.661,0,0,0-.517.213.716.716,0,0,0-.191.5.733.733,0,0,0,.184.5.745.745,0,0,0,1.041,0,.737.737,0,0,0,0-.992A.66.66,0,0,0,77.857,72.267Z"></path><rect class="e01ca24a-1f8b-4d8c-ba44-de86eacc6b9b" x="77.319" y="75.286" width="1.02" height="7.042"></rect><path class="e01ca24a-1f8b-4d8c-ba44-de86eacc6b9b" d="M84.276,75.158a2.568,2.568,0,0,0-1.75.652,3.839,3.839,0,0,0-1.1,1.884l.085-2.408H80.464v7.042h1.021a16.228,16.228,0,0,1,.332-3.7,4.132,4.132,0,0,1,.907-1.935,1.792,1.792,0,0,1,1.3-.573,1.234,1.234,0,0,1,1.112.524,2.838,2.838,0,0,1,.347,1.559l-.028,4.123h1.035l.028-4.251a3.49,3.49,0,0,0-.581-2.168A1.972,1.972,0,0,0,84.276,75.158Z"></path><rect class="e01ca24a-1f8b-4d8c-ba44-de86eacc6b9b" x="88.555" y="75.286" width="1.02" height="7.042"></rect><path class="e01ca24a-1f8b-4d8c-ba44-de86eacc6b9b" d="M89.094,72.267a.658.658,0,0,0-.517.213.717.717,0,0,0-.192.5.734.734,0,0,0,.185.5.745.745,0,0,0,1.041,0,.74.74,0,0,0,0-.992A.66.66,0,0,0,89.094,72.267Z"></path><path class="e01ca24a-1f8b-4d8c-ba44-de86eacc6b9b" d="M94.838,76.107a1.858,1.858,0,0,1,1.729,1.007l.794-.6a2.68,2.68,0,0,0-2.494-1.36,3.411,3.411,0,0,0-1.814.475,3.269,3.269,0,0,0-1.219,1.325,4.226,4.226,0,0,0-.439,1.969,3.61,3.61,0,0,0,.879,2.586,3.173,3.173,0,0,0,2.423.928,2.907,2.907,0,0,0,2.664-1.374l-.765-.595a1.933,1.933,0,0,1-.794.765,2.336,2.336,0,0,1-1.063.241,2.121,2.121,0,0,1-1.672-.652,2.768,2.768,0,0,1-.581-1.9,3.089,3.089,0,0,1,.645-2.047A2.114,2.114,0,0,1,94.838,76.107Z"></path><path class="e01ca24a-1f8b-4d8c-ba44-de86eacc6b9b" d="M103.434,76.32a2.038,2.038,0,0,0-.794-.836,2.364,2.364,0,0,0-1.247-.326,3.152,3.152,0,0,0-1.771.5,3.347,3.347,0,0,0-1.191,1.4,4.815,4.815,0,0,0-.425,2.076,4.254,4.254,0,0,0,.326,1.721,2.665,2.665,0,0,0,.936,1.162,2.588,2.588,0,0,0,1.5.418,2.551,2.551,0,0,0,1.516-.474,3.341,3.341,0,0,0,1.063-1.3l-.043,1.658h1.049V75.286h-.78Zm-.411,3.627a2.712,2.712,0,0,1-.865,1.134,2.036,2.036,0,0,1-1.247.411,1.589,1.589,0,0,1-1.339-.645,2.907,2.907,0,0,1-.489-1.792,3.378,3.378,0,0,1,.638-2.154,2.055,2.055,0,0,1,1.7-.808,1.759,1.759,0,0,1,1.4.588,2.373,2.373,0,0,1,.51,1.609A4.161,4.161,0,0,1,103.023,79.947Z"></path><path class="e01ca24a-1f8b-4d8c-ba44-de86eacc6b9b" d="M108.776,81.442a1.327,1.327,0,0,1-.411.064.8.8,0,0,1-.652-.241,1.087,1.087,0,0,1-.2-.708V71.842H106.48v8.842a1.861,1.861,0,0,0,.425,1.276,1.649,1.649,0,0,0,1.3.481,2.284,2.284,0,0,0,.644-.092,1.357,1.357,0,0,0,.518-.262l-.284-.779A1.4,1.4,0,0,1,108.776,81.442Z"></path><path class="e01ca24a-1f8b-4d8c-ba44-de86eacc6b9b" d="M118.468,75.286l.028.878a1.985,1.985,0,0,0-.8-.737,2.466,2.466,0,0,0-1.154-.269,3.155,3.155,0,0,0-1.772.5,3.338,3.338,0,0,0-1.19,1.4,4.815,4.815,0,0,0-.425,2.076,4.237,4.237,0,0,0,.326,1.721,2.663,2.663,0,0,0,.935,1.162,2.59,2.59,0,0,0,1.5.418,2.549,2.549,0,0,0,1.516-.474,3.341,3.341,0,0,0,1.063-1.3l-.043,1.658H119.5V71.842h-1.034Zm-.3,4.661a2.719,2.719,0,0,1-.864,1.134,2.038,2.038,0,0,1-1.247.411,1.589,1.589,0,0,1-1.339-.645,2.907,2.907,0,0,1-.489-1.792,3.378,3.378,0,0,1,.637-2.154,2.057,2.057,0,0,1,1.7-.808,1.76,1.76,0,0,1,1.4.588,2.373,2.373,0,0,1,.51,1.609A4.143,4.143,0,0,1,118.17,79.947Z"></path><path class="e01ca24a-1f8b-4d8c-ba44-de86eacc6b9b" d="M126.906,76.164a2.672,2.672,0,0,0-2.232-1.006,3.175,3.175,0,0,0-1.722.475,3.324,3.324,0,0,0-1.2,1.325,4.164,4.164,0,0,0-.439,1.941,3.537,3.537,0,0,0,.928,2.607,3.437,3.437,0,0,0,2.557.935,3.094,3.094,0,0,0,2.707-1.374l-.652-.595a2.279,2.279,0,0,1-.893.772,2.525,2.525,0,0,1-1.091.248,2.561,2.561,0,0,1-1.806-.595,2.367,2.367,0,0,1-.688-1.729h5.087A4.053,4.053,0,0,0,126.906,76.164Zm-.347,2.168h-4.166a3.077,3.077,0,0,1,.368-1.183,2.337,2.337,0,0,1,.786-.843,2.074,2.074,0,0,1,1.141-.312,1.852,1.852,0,0,1,1.389.553A2.331,2.331,0,0,1,126.559,78.332Z"></path><path class="e01ca24a-1f8b-4d8c-ba44-de86eacc6b9b" d="M132.34,76.107a1.859,1.859,0,0,1,1.729,1.007l.793-.6a2.679,2.679,0,0,0-2.494-1.36,3.413,3.413,0,0,0-1.814.475,3.267,3.267,0,0,0-1.218,1.325,4.226,4.226,0,0,0-.439,1.969,3.61,3.61,0,0,0,.878,2.586,3.175,3.175,0,0,0,2.423.928,2.907,2.907,0,0,0,2.664-1.374l-.765-.595a1.933,1.933,0,0,1-.794.765,2.335,2.335,0,0,1-1.062.241,2.123,2.123,0,0,1-1.673-.652,2.767,2.767,0,0,1-.58-1.9,3.089,3.089,0,0,1,.644-2.047A2.114,2.114,0,0,1,132.34,76.107Z"></path><rect class="e01ca24a-1f8b-4d8c-ba44-de86eacc6b9b" x="136.109" y="75.286" width="1.02" height="7.042"></rect><path class="e01ca24a-1f8b-4d8c-ba44-de86eacc6b9b" d="M136.647,72.267a.661.661,0,0,0-.517.213.721.721,0,0,0-.191.5.733.733,0,0,0,.184.5.746.746,0,0,0,1.042,0,.74.74,0,0,0,0-.992A.662.662,0,0,0,136.647,72.267Z"></path><path class="e01ca24a-1f8b-4d8c-ba44-de86eacc6b9b" d="M143,78.835a8.527,8.527,0,0,0-1.289-.361A3.34,3.34,0,0,1,140.43,78a.894.894,0,0,1-.354-.744,1.108,1.108,0,0,1,.4-.9,1.657,1.657,0,0,1,1.084-.333,1.355,1.355,0,0,1,1.53,1.162l.879-.226a1.992,1.992,0,0,0-.772-1.311,2.631,2.631,0,0,0-1.623-.475,2.949,2.949,0,0,0-1.3.276,2.228,2.228,0,0,0-.9.759,1.873,1.873,0,0,0-.326,1.077,1.789,1.789,0,0,0,.283,1.062,1.838,1.838,0,0,0,.808.617,6.424,6.424,0,0,0,1.261.361,4.449,4.449,0,0,1,1.29.4.769.769,0,0,1,.411.715,1.008,1.008,0,0,1-.4.829,1.876,1.876,0,0,1-1.183.319,2.312,2.312,0,0,1-1.4-.354,1.558,1.558,0,0,1-.574-1.1l-.907.212a2.152,2.152,0,0,0,.836,1.552,3.328,3.328,0,0,0,2.041.545,3.247,3.247,0,0,0,1.367-.269,2.191,2.191,0,0,0,.914-.737,1.814,1.814,0,0,0,.326-1.062,1.558,1.558,0,0,0-.3-.978A1.939,1.939,0,0,0,143,78.835Z"></path><path class="e01ca24a-1f8b-4d8c-ba44-de86eacc6b9b" d="M146.2,72.267a.662.662,0,0,0-.518.213.721.721,0,0,0-.191.5.733.733,0,0,0,.184.5.746.746,0,0,0,1.042,0,.74.74,0,0,0,0-.992A.661.661,0,0,0,146.2,72.267Z"></path><rect class="e01ca24a-1f8b-4d8c-ba44-de86eacc6b9b" x="145.659" y="75.286" width="1.02" height="7.042"></rect><path class="e01ca24a-1f8b-4d8c-ba44-de86eacc6b9b" d="M151.88,75.158a3.208,3.208,0,0,0-1.786.5A3.312,3.312,0,0,0,148.911,77a4.306,4.306,0,0,0-.418,1.927,3.7,3.7,0,0,0,.85,2.572,2.99,2.99,0,0,0,2.338.942,3.112,3.112,0,0,0,1.757-.5,3.32,3.32,0,0,0,1.169-1.353,4.349,4.349,0,0,0,.418-1.934,3.7,3.7,0,0,0-.843-2.558A2.933,2.933,0,0,0,151.88,75.158Zm1.445,5.555a2,2,0,0,1-1.644.779,1.926,1.926,0,0,1-1.551-.659,2.862,2.862,0,0,1-.56-1.906,3.538,3.538,0,0,1,.29-1.474,2.409,2.409,0,0,1,.808-1,2.092,2.092,0,0,1,1.226-.361,1.845,1.845,0,0,1,1.509.666,2.929,2.929,0,0,1,.545,1.9A3.191,3.191,0,0,1,153.325,80.713Z"></path><path class="e01ca24a-1f8b-4d8c-ba44-de86eacc6b9b" d="M160.651,75.158a2.572,2.572,0,0,0-1.751.652,3.847,3.847,0,0,0-1.1,1.884l.085-2.408h-1.048v7.042h1.02a16.219,16.219,0,0,1,.333-3.7,4.123,4.123,0,0,1,.907-1.935,1.792,1.792,0,0,1,1.3-.573,1.235,1.235,0,0,1,1.112.524,2.847,2.847,0,0,1,.347,1.559l-.028,4.123h1.034l.028-4.251a3.484,3.484,0,0,0-.581-2.168A1.97,1.97,0,0,0,160.651,75.158Z"></path><path class="e01ca24a-1f8b-4d8c-ba44-de86eacc6b9b" d="M168.671,78.835a8.509,8.509,0,0,0-1.29-.361A3.334,3.334,0,0,1,166.106,78a.894.894,0,0,1-.354-.744,1.1,1.1,0,0,1,.4-.9,1.655,1.655,0,0,1,1.084-.333,1.356,1.356,0,0,1,1.53,1.162l.879-.226a1.994,1.994,0,0,0-.773-1.311,2.626,2.626,0,0,0-1.622-.475,2.957,2.957,0,0,0-1.3.276,2.241,2.241,0,0,0-.9.759,1.879,1.879,0,0,0-.325,1.077,1.789,1.789,0,0,0,.283,1.062,1.832,1.832,0,0,0,.808.617,6.4,6.4,0,0,0,1.261.361,4.451,4.451,0,0,1,1.289.4.769.769,0,0,1,.411.715,1,1,0,0,1-.4.829,1.874,1.874,0,0,1-1.183.319,2.316,2.316,0,0,1-1.4-.354,1.562,1.562,0,0,1-.574-1.1l-.906.212a2.148,2.148,0,0,0,.836,1.552,3.325,3.325,0,0,0,2.04.545,3.244,3.244,0,0,0,1.367-.269,2.191,2.191,0,0,0,.914-.737,1.806,1.806,0,0,0,.326-1.062,1.558,1.558,0,0,0-.3-.978A1.939,1.939,0,0,0,168.671,78.835Z"></path><path class="e01ca24a-1f8b-4d8c-ba44-de86eacc6b9b" d="M175.1,72.267a.658.658,0,0,0-.517.213.717.717,0,0,0-.192.5.734.734,0,0,0,.185.5.745.745,0,0,0,1.041,0,.74.74,0,0,0,0-.992A.66.66,0,0,0,175.1,72.267Z"></path><rect class="e01ca24a-1f8b-4d8c-ba44-de86eacc6b9b" x="174.565" y="75.286" width="1.02" height="7.042"></rect><path class="e01ca24a-1f8b-4d8c-ba44-de86eacc6b9b" d="M181.523,75.158a2.568,2.568,0,0,0-1.75.652,3.84,3.84,0,0,0-1.1,1.884l.085-2.408h-1.048v7.042h1.02a16.219,16.219,0,0,1,.333-3.7,4.123,4.123,0,0,1,.907-1.935,1.792,1.792,0,0,1,1.3-.573,1.235,1.235,0,0,1,1.112.524,2.847,2.847,0,0,1,.347,1.559l-.028,4.123h1.034l.028-4.251a3.484,3.484,0,0,0-.581-2.168A1.97,1.97,0,0,0,181.523,75.158Z"></path><path class="e01ca24a-1f8b-4d8c-ba44-de86eacc6b9b" d="M192.17,76.107a1.859,1.859,0,0,1,1.729,1.007l.793-.6a2.679,2.679,0,0,0-2.494-1.36,3.416,3.416,0,0,0-1.814.475,3.267,3.267,0,0,0-1.218,1.325,4.226,4.226,0,0,0-.439,1.969,3.61,3.61,0,0,0,.878,2.586,3.175,3.175,0,0,0,2.423.928,2.907,2.907,0,0,0,2.664-1.374l-.765-.595a1.933,1.933,0,0,1-.794.765,2.335,2.335,0,0,1-1.062.241,2.123,2.123,0,0,1-1.673-.652,2.767,2.767,0,0,1-.58-1.9,3.089,3.089,0,0,1,.644-2.047A2.114,2.114,0,0,1,192.17,76.107Z"></path><path class="e01ca24a-1f8b-4d8c-ba44-de86eacc6b9b" d="M200.766,76.32a2.036,2.036,0,0,0-.793-.836,2.364,2.364,0,0,0-1.247-.326,3.152,3.152,0,0,0-1.771.5,3.347,3.347,0,0,0-1.191,1.4,4.815,4.815,0,0,0-.425,2.076,4.254,4.254,0,0,0,.326,1.721,2.67,2.67,0,0,0,.935,1.162,2.593,2.593,0,0,0,1.5.418,2.551,2.551,0,0,0,1.516-.474,3.33,3.33,0,0,0,1.062-1.3l-.042,1.658h1.049V75.286h-.78Zm-.41,3.627a2.712,2.712,0,0,1-.865,1.134,2.036,2.036,0,0,1-1.247.411,1.589,1.589,0,0,1-1.339-.645,2.907,2.907,0,0,1-.489-1.792,3.378,3.378,0,0,1,.638-2.154,2.055,2.055,0,0,1,1.7-.808,1.759,1.759,0,0,1,1.4.588,2.373,2.373,0,0,1,.51,1.609A4.161,4.161,0,0,1,200.356,79.947Z"></path><path class="e01ca24a-1f8b-4d8c-ba44-de86eacc6b9b" d="M207.625,75.158a2.568,2.568,0,0,0-1.75.652,3.839,3.839,0,0,0-1.1,1.884l.085-2.408h-1.049v7.042h1.02a16.219,16.219,0,0,1,.333-3.7,4.132,4.132,0,0,1,.907-1.935,1.792,1.792,0,0,1,1.3-.573,1.235,1.235,0,0,1,1.112.524,2.847,2.847,0,0,1,.347,1.559l-.028,4.123h1.034l.029-4.251a3.49,3.49,0,0,0-.581-2.168A1.974,1.974,0,0,0,207.625,75.158Z"></path><path class="e01ca24a-1f8b-4d8c-ba44-de86eacc6b9b" d="M215.042,76.107a1.859,1.859,0,0,1,1.729,1.007l.793-.6a2.679,2.679,0,0,0-2.494-1.36,3.413,3.413,0,0,0-1.814.475,3.267,3.267,0,0,0-1.218,1.325,4.226,4.226,0,0,0-.439,1.969,3.61,3.61,0,0,0,.878,2.586,3.175,3.175,0,0,0,2.423.928,2.907,2.907,0,0,0,2.664-1.374l-.765-.595a1.933,1.933,0,0,1-.794.765,2.335,2.335,0,0,1-1.062.241,2.123,2.123,0,0,1-1.673-.652,2.767,2.767,0,0,1-.58-1.9,3.089,3.089,0,0,1,.644-2.047A2.114,2.114,0,0,1,215.042,76.107Z"></path><path class="e01ca24a-1f8b-4d8c-ba44-de86eacc6b9b" d="M223.8,76.164a2.669,2.669,0,0,0-2.232-1.006,3.175,3.175,0,0,0-1.722.475,3.324,3.324,0,0,0-1.2,1.325,4.164,4.164,0,0,0-.439,1.941,3.537,3.537,0,0,0,.928,2.607,3.438,3.438,0,0,0,2.558.935,3.094,3.094,0,0,0,2.706-1.374l-.652-.595a2.272,2.272,0,0,1-.893.772,2.525,2.525,0,0,1-1.091.248,2.561,2.561,0,0,1-1.806-.595,2.363,2.363,0,0,1-.687-1.729h5.087A4.052,4.052,0,0,0,223.8,76.164Zm-.347,2.168h-4.166a3.077,3.077,0,0,1,.368-1.183,2.331,2.331,0,0,1,.787-.843,2.071,2.071,0,0,1,1.14-.312,1.852,1.852,0,0,1,1.389.553A2.331,2.331,0,0,1,223.453,78.332Z"></path><path class="e01ca24a-1f8b-4d8c-ba44-de86eacc6b9b" d="M229.949,75.179a3.461,3.461,0,0,0-.4-.021,2.169,2.169,0,0,0-1.46.6,3.863,3.863,0,0,0-1.02,2.034l.071-2.508H226.1l.014,2.522v4.52h1.021a14,14,0,0,1,.566-4.683,1.912,1.912,0,0,1,1.8-1.453,2.993,2.993,0,0,1,.312.015,1.492,1.492,0,0,1,.283.056l.156-1.006A1.086,1.086,0,0,0,229.949,75.179Z"></path><path class="e01ca24a-1f8b-4d8c-ba44-de86eacc6b9b" d="M258.2,17.888,282.463,41.58l-6.48,6.671q-13.848,14.181-25.893,2.421a17.88,17.88,0,0,1-4.956-7.958,14.846,14.846,0,0,1,.191-8.663,21.262,21.262,0,0,1,5.327-8.424Zm-.3,6.462-4.041,4.136q-4.678,4.764-4.765,9.482c-.076,3.126,1.354,6.137,4.289,9.006Q258,51.491,262.7,51.2t9.739-5.451l3.612-3.688Z"></path><path class="e01ca24a-1f8b-4d8c-ba44-de86eacc6b9b" d="M286.38,38.1,262.145,14.381l6.48-6.671Q282.453-6.432,294.49,5.366a17.9,17.9,0,0,1,4.956,7.948,14.875,14.875,0,0,1-.191,8.672,21.265,21.265,0,0,1-5.327,8.425Zm.3-6.462,4.06-4.136q4.68-4.764,4.765-9.53t-4.288-9.006Q286.6,4.451,281.9,4.747t-9.74,5.451l-3.6,3.745Z"></path></g></g></svg> 